<svg id="Capa_1" data-name="Capa 1" xmlns="http://www.w3.org/2000/svg" width="150.00111cm" height="69.99111cm" viewBox="0 0 4252 1984">
  <defs>
    <style>
      .cls-1 {
        fill: #fff;
      }

      .cls-2, .cls-24, .cls-29, .cls-30, .cls-32, .cls-4, .cls-40, .cls-8 {
        fill: #035bad;
      }

      .cls-3 {
        fill: #f7f9fa;
      }

      .cls-4 {
        font-size: 254.6799px;
      }

      .cls-24, .cls-30, .cls-32, .cls-4, .cls-8 {
        font-family: Outfit-ExtraBold, Outfit;
        font-weight: 800;
      }

      .cls-5 {
        letter-spacing: -0.019em;
      }

      .cls-6 {
        letter-spacing: -0.008em;
      }

      .cls-7 {
        letter-spacing: -0.04399em;
      }

      .cls-8 {
        font-size: 77.0077px;
      }

      .cls-9 {
        letter-spacing: -0.01399em;
      }

      .cls-10 {
        letter-spacing: -0.00001em;
      }

      .cls-11 {
        letter-spacing: -0.01799em;
      }

      .cls-12 {
        letter-spacing: -0.02399em;
      }

      .cls-13 {
        letter-spacing: -0.00199em;
      }

      .cls-14 {
        letter-spacing: -0.01501em;
      }

      .cls-15 {
        letter-spacing: -0.04998em;
      }

      .cls-16 {
        letter-spacing: -0.008em;
      }

      .cls-17 {
        letter-spacing: -0.03599em;
      }

      .cls-18 {
        letter-spacing: -0.028em;
      }

      .cls-19 {
        letter-spacing: -0.02499em;
      }

      .cls-20 {
        letter-spacing: -0.066em;
      }

      .cls-21 {
        letter-spacing: -0.03201em;
      }

      .cls-22 {
        letter-spacing: -0.01499em;
      }

      .cls-23 {
        letter-spacing: -0.00001em;
      }

      .cls-24 {
        font-size: 149.64935px;
      }

      .cls-25 {
        letter-spacing: -0.01799em;
      }

      .cls-26 {
        letter-spacing: -0.028em;
      }

      .cls-27 {
        letter-spacing: -0.008em;
      }

      .cls-28 {
        letter-spacing: -0.028em;
      }

      .cls-29 {
        fill-rule: evenodd;
      }

      .cls-30 {
        font-size: 117.58035px;
      }

      .cls-31 {
        letter-spacing: -0.00899em;
      }

      .cls-32 {
        font-size: 86.33205px;
      }

      .cls-33 {
        letter-spacing: -0.01298em;
      }

      .cls-34 {
        letter-spacing: -0.006em;
      }

      .cls-35 {
        letter-spacing: -0.03em;
      }

      .cls-36 {
        letter-spacing: -0.01099em;
      }

      .cls-37 {
        letter-spacing: 0.00001em;
      }

      .cls-38 {
        letter-spacing: -0.07799em;
      }

      .cls-39 {
        letter-spacing: -0.00898em;
      }

      .cls-40 {
        font-size: 103.75864px;
        font-family: Outfit-Regular, Outfit;
      }

      .cls-41 {
        letter-spacing: -0.036em;
      }

      .cls-42 {
        letter-spacing: -0.008em;
      }

      .cls-43 {
        letter-spacing: -0.01399em;
      }

      .cls-44 {
        letter-spacing: -0.01899em;
      }

      .cls-45 {
        letter-spacing: -0.00799em;
      }

      .cls-46 {
        letter-spacing: 0em;
      }

      .cls-47 {
        letter-spacing: -0.01599em;
      }

      .cls-48 {
        letter-spacing: -0.101em;
      }

      .cls-49 {
        letter-spacing: -0.028em;
      }

      .cls-50 {
        letter-spacing: 0.00599em;
      }

      .cls-51 {
        letter-spacing: -0.06099em;
      }

      .cls-52 {
        letter-spacing: 0.00299em;
      }

      .cls-53 {
        letter-spacing: 0.006em;
      }

      .cls-54 {
        letter-spacing: -0.10099em;
      }

      .cls-55 {
        letter-spacing: -0.01399em;
      }

      .cls-56 {
        letter-spacing: -0.01799em;
      }

      .cls-57 {
        letter-spacing: -0.04799em;
      }

      .cls-58 {
        letter-spacing: -0.03599em;
      }

      .cls-59 {
        letter-spacing: -0.05199em;
      }

      .cls-60 {
        letter-spacing: -0.02499em;
      }

      .cls-61 {
        letter-spacing: 0em;
      }
    </style>
  </defs>
  <g>
    <rect class="cls-1" x="0.5" y="0.5" width="4251" height="1983"/>
    <path d="M4251,1V1983H1V1H4251m1-1H0V1984H4252V0Z"/>
  </g>
  <g>
    <g>
      <path class="cls-2" d="M2900.13819,288.75711c-71.18257,15.20723-136.47655,57.988-184.278,121.32364L2700.446,430.8027l-.34638,425.13408c0,233.79033-1.03916,442.34672-2.07832,463.06861-1.73193,34.75937-1.03916,39.93992,7.10094,63.00142,67.89189,194.51895,311.92165,338.90406,554.21947,327.54044,130.06839-6.18319,245.76163-50.96931,349.851-136.19667,55.07554-44.78612,113.96136-113.13516,154.66186-178.97741l20.78323-34.091,2.42475-130.34773c1.38553-71.69129,4.32984-259.52564,7.10089-417.44692,7.1009-403.40949,7.1009-408.59,3.98343-408.59-1.73193,0-18.53173,3.17514-36.89021,7.18584-29.96247,6.51739-44.33751,7.18584-113.26865,7.52006-67.8919,0-85.038-1.33691-122.621-7.52006-54.03642-9.3583-140.46-30.7487-213.37452-52.47332-30.82838-9.19115-74.47313-22.393-97.68112-29.24464-111.53666-33.75672-177.177-45.45459-246.28125-45.12037-26.32544.33422-56.8075,2.33957-67.89191,4.512Zm149.4661,24.73264c58.19306,7.85429,100.79869,18.88371,252.16988,64.50541,177.17707,53.81022,246.80091,68.18188,331.14611,68.18188,47.10867,0,99.2399-7.52006,125.3922-18.21526,6.75459-2.6738,13.16267-3.50936,14.72145-2.00535,2.42475,2.33958-9.6988,886.69871-12.81637,900.90326-1.73193,8.68987-40.70049,71.0228-62.86925,100.26749-62.86925,83.38916-141.84559,149.8999-226.53719,190.67528-148.25372,72.02543-324.04521,72.35968-480.2658,1.00263-120.36954-55.14711-212.68173-145.88916-257.88524-253.34256l-10.738-25.90243,1.38556-450.86942c1.03916-394.38542,1.73193-452.03922,6.06177-461.56465,8.1401-16.20991,51.09211-56.81824,79.66905-74.86639,63.562-39.77256,140.11353-52.13889,240.56583-38.76989Z"/>
      <path class="cls-2" d="M2926.9832,332.54057c-66.15994,10.02675-121.06231,39.60566-164.01432,88.23538l-15.41422,17.54681-2.4247,444.352-2.07832,444.01784,10.39162,27.23932c33.25316,86.89848,104.26253,165.44134,197.61389,219.58582,84.3453,48.62969,163.66794,71.357,260.13674,74.86636,97.16161,3.50932,164.3607-10.361,250.09158-51.30354,54.38283-25.90244,96.46885-55.48136,144.61665-101.77154,45.37674-43.78348,78.97623-84.89311,110.67074-136.86515l21.82235-35.09362,5.02266-327.54043c2.94431-180.31435,6.40818-375.83593,7.4473-434.99374l2.42475-107.2862-28.23053,6.18316c-41.0469,9.02407-112.22942,11.02942-162.62882,4.512-75.33921-9.69253-132.4931-24.0642-304.128-76.53751-82.95972-25.234-149.98566-42.44656-196.57472-50.30085-37.58309-6.35017-107.89969-8.68974-134.7447-4.84616Zm-23.20793,47.12572c11.77717,4.512,12.12355,5.18048,9.69885,18.54948-2.77111,15.87568-3.98346,18.88371-8.65968,18.88371-1.73193,0-2.94428-4.84626-2.94428-11.02942,0-30.7487-37.583-22.05885-54.0364,12.70055-8.65968,18.54948-8.65968,49.96663.34638,59.32492,9.35245,9.69253,24.93987,9.3583,34.29234-1.00267,8.14009-8.68984,16.107-10.6952,16.107-3.50936s-19.2245,21.05617-32.5604,23.39575c-15.76063,2.8409-34.29234-6.18316-41.04688-19.71928-6.75453-13.70322-5.369-37.26609,3.29067-56.484,8.1401-18.54948,28.23056-37.93453,42.43243-41.10966,5.369-1.00268,11.08438-2.33958,12.81632-2.84092,5.88857-2.33957,8.14009-2.00534,20.26364,2.84092Zm51.78487,32.0856c0,2.67379-3.29066,5.18048-7.44733,5.84893-9.69885,1.33691-12.12355,9.02408-2.7711,9.02408,4.32983,0,6.75453,1.67112,6.06177,3.84359a7.25622,7.25622,0,0,1-6.40816,4.17781c-2.7711,0-5.0226,3.17514-5.71539,7.18584-1.03917,5.51472.69276,7.52007,5.71539,7.52007a13.78432,13.78432,0,0,0,10.39162-5.84894c3.29067-5.18048,3.29067-5.18048,6.75454,0,2.07834,3.17514,6.06177,5.84894,8.65968,5.84894,5.71536,0,15.76062-20.72195,13.85548-28.57623-1.03917-4.17782-2.4247-3.17514-5.0226,3.50936-2.4247,5.18048-5.369,8.18851-7.4473,7.18584-9.00609-5.51472,3.29067-21.05617,16.7998-21.05617,8.14012,0,9.69885,1.67112,11.77714,12.03209l2.4247,12.36633,6.40818-12.36633c7.44731-13.70322,7.101-13.369,36.02425-7.52006,13.16272,2.6738,21.8224,2.84091,23.20793,1.00267,1.03917-1.67112,2.94431-1.3369,4.32984,1.33691,1.73193,2.33957,6.06177,4.512,10.04521,5.18048,11.08437,1.67113,20.09046,7.18584,20.09046,12.36633,0,2.33957-3.98343,7.18584-8.65968,10.6952-8.48647,5.84893-8.65968,6.85161-5.0226,17.881,5.0226,14.873,13.16272,13.03477,11.08438-2.6738-2.77111-22.72729,29.2697-37.60031,41.73966-19.385,3.29067,5.18048,4.67625,11.02942,3.29067,16.2099-2.77111,9.69253-21.12964,22.05884-30.30888,19.71928-3.29066-1.00268-9.00608.33422-12.47,2.33957-8.65968,5.18049-17.14615-.33422-21.476-13.369-2.94431-10.69521-8.48648-13.87034-8.48648-5.51472,0,2.6738-2.94431,4.84626-6.40818,4.84626-7.79371,0-12.12355-5.18048-7.101-8.18851,2.07835-1.33691,1.73194-4.17781-.69276-8.18851-2.94431-4.512-2.94431-8.18852,0-14.20456,2.94431-6.85161,2.94431-8.35563-.34641-8.35563-6.06178,0-16.45339,22.05884-14.20189,29.5789,2.07834,6.18316,1.73193,6.18316-13.16273,1.67113-5.71537-2.00535-5.71537-2.6738-1.38553-7.85428,8.48648-9.02408,16.4534-25.90243,13.16273-27.90778-5.369-3.17514-13.85549,2.00535-13.85549,8.35562,0,3.50936-1.73194,5.84894-3.98343,4.84627-2.4247-.66845-3.98343-5.51472-3.63708-10.6952.69277-8.68984.34641-8.35563-5.71536,3.50936-3.63708,7.18584-6.75454,15.54146-6.75454,18.54948,0,10.6952-7.101,9.35829-12.12355-2.84091l-5.369-12.36632-5.0226,12.36632c-4.67625,11.36366-5.71537,12.03209-19.2245,11.36366a153.36206,153.36206,0,0,0-27.53777,1.67112l-13.85549,2.6738,1.73194-18.54948c1.03917-13.70322.69276-17.881-2.4247-16.20991-2.07832,1.33691-3.29067,5.51472-2.94428,9.3583.69276,3.84359-.34639,7.85428-2.4247,8.68984-1.73194,1.00267-3.63708-2.84091-4.32984-8.35562-.69277-8.18852,1.03917-11.69788,8.48647-16.87836,5.369-3.50936,13.16272-7.18584,17.83895-8.18851,4.67622-.66846,9.35244-1.67113,11.08437-2.00535,1.73194.16709,2.77111,1.67109,2.77111,4.3449Zm262.21508,49.96662c7.44731,7.18584,11.77715,9.02407,19.57086,7.85428,13.16272-1.67113,34.29231,4.84626,34.29231,11.02942,0,5.51471-3.98343,5.84893-9.00609,1.00267-4.32984-4.17781-14.37505-1.67113-14.37505,3.50936,0,1.67112,2.4247,3.17514,5.02261,3.17514a5.1181,5.1181,0,0,1,5.0226,5.18048c0,3.50936-2.07834,4.512-6.75454,2.84091-3.98343-1.33691-9.35244-.33422-12.12355,2.00536-4.32984,3.50937-3.98343,4.512,2.77111,8.1885,5.0226,2.67381,8.48647,2.8409,9.69885.66844a4.32837,4.32837,0,0,1,6.06177-1.00269c2.94432,1.67113,2.94432,3.17513,0,6.85162-5.0226,5.84894-6.40818,5.84894-24.2471-1.67112l-15.58737-6.51735,11.77715-11.69788c11.43078-12.03209,14.20189-17.881,8.14012-17.881-2.07835,0-5.02261,3.50935-6.75454,8.18851-2.07835,4.84626-5.71537,8.18851-9.69886,8.18851-3.63707,0-7.79371,1.67113-9.00608,3.50936-2.77111,4.17783-30.65529,2.00535-35.33148-2.6738-2.07835-2.00534.3464-7.18584,7.10094-13.87033,11.77715-12.36633,13.85549-21.72463,3.29067-16.20991a13.26261,13.26261,0,0,0-6.75454,11.36365c0,5.18049-2.07834,8.18852-5.0226,8.18852-10.738,0-2.94431-21.05617,9.35244-25.90244,13.33593-5.34761,22.68837-3.50938,32.56037,5.68181Zm144.78985,10.6952c23.20793,6.8516,27.53777,11.36365,18.18533,19.21793-3.98343,3.17514-5.0226,3.17514-5.0226-1.00267,0-2.6738-4.67625-6.51739-10.04521-8.35563-9.00609-2.8409-10.738-2.33957-15.41422,4.512-6.40818,9.35829-3.63707,14.53878,7.4473,14.53878,9.35245,0,10.04521,2.67381,3.29067,11.69787-4.67625,5.84893-5.0226,5.84893-7.101.33422-3.29066-8.1885-16.79979-6.85162-23.20793,2.67381-2.94431,4.17781-5.369,8.35562-5.369,9.35831,0,.66844,6.06178,4.17781,13.50908,8.1885l13.50908,6.51737,3.63708-6.51737c4.32984-7.85428,10.39161-4.17781,12.12355,7.52006,1.38552,9.02406,2.94431,10.361,9.35244,7.85428,4.32984-1.67113,5.0226-4.84625,3.29067-16.20991-2.07835-12.70055-1.38553-14.873,5.0226-18.21524,6.06178-2.84091,9.35244-2.84091,16.45334,0,8.65968,3.84359,27.19141,6.85162,45.03033,6.85162,5.02266,0,9.00609,1.3369,9.00609,2.67381,0,1.67112,2.94431,3.50937,7.10089,4.512,6.7546,1.67112,6.7546,2.00534-2.07834,14.873-9.3525,13.369-9.00609,19.71927,1.38553,19.71927,8.48653,0,20.09041-13.03477,22.51516-25.234,2.77106-12.36631,8.14012-13.87034,8.14012-2.33956,0,7.18584.69282,7.85428,9.00609,4.512,19.91726-7.18584,40.7005,6.85162,36.02425,24.39843-2.77106,11.36365-13.50908,18.21525-28.23054,18.21525-19.57085,0-21.82235-3.50937-12.12355-17.881,10.04521-14.20456,11.08443-18.88372,2.94431-17.21259-3.98343.66844-6.40818,4.512-7.10089,11.69787-1.38553,11.36365-5.369,13.70322-8.65968,5.1805-2.07834-4.84625-2.94431-4.84625-9.6988,1.67112-20.78323,18.88372-43.2984-2.00534-25.45948-23.73,3.637-4.512,5.02266-8.35563,2.94432-8.35563s-4.32984,2.33957-5.369,4.84626c-2.94432,7.18584-7.44731,5.84893-8.65968-2.67381-1.03912-6.51738-1.73194-5.84894-8.65968,5.18049-4.32984,6.85162-7.1009,14.20456-6.06178,16.87837,2.42475,6.18316-1.38553,7.85428-10.39161,4.512l-7.79371-2.67381,10.0452-15.54146c10.04521-15.20724,9.6988-22.39306-1.03912-18.54949-2.94431,1.00268-5.71536,4.84625-5.71536,8.35562,0,9.69253-8.14012,5.1805-10.04521-5.84894-2.07835-10.361-8.65968-10.02675-7.79371.33422,2.4247,16.20991,1.73193,22.05884-2.77111,24.56553-7.4473,4.512-21.8224,3.17513-26.4986-2.00534-2.4247-2.67381-6.75454-4.84626-9.69885-4.84626-9.00609,0-52.13128-15.54146-53.51681-19.21793-.69276-2.00534,1.38553-3.50937,3.98343-3.50937,6.06178,0,37.583-44.45192,34.29231-47.96127-1.38552-1.00268-6.40818-.33422-11.43078,1.3369-7.101,2.33958-9.35245,5.84894-10.738,14.20456-2.07834,12.70056-11.08438,15.87568-12.81631,4.512-1.73194-11.69787,17.14615-29.5789,32.214-30.08024,2.94426-.33422,15.241,2.50668,28.05733,6.51739Zm241.95141,81.04956c2.07835,3.84359,2.77106,11.36365,1.73194,17.21258-2.42475,11.36366,4.32984,24.06419,10.738,20.0535,5.369-3.17513,5.02266-10.361-1.38552-19.71928-4.32984-6.18315-4.32984-8.68984-.69282-14.20455,5.02266-8.18851,26.15219-9.69253,26.15219-2.33957,0,6.85162-7.1009,10.02675-10.39162,4.84625-5.71536-8.68984-7.79371,1.00269-2.07834,10.361,7.4473,12.70056,7.10089,14.53878-1.03912,22.39306s-21.12964,8.35562-26.845,1.67113c-2.94431-3.50938-7.4473-4.512-13.85548-3.17513-21.476,4.512-31.17485-16.54413-16.107-35.42784C3580.09623,544.105,3598.80112,543.10227,3604.51648,553.46327Zm-225.498,20.72193c28.23059,5.84894,47.80145,12.36631,72.56811,24.39843,30.65528,14.53878,38.96855,20.72194,83.65248,61.66449,27.53782,25.234,60.79091,53.81024,74.64639,63.50274,13.50908,9.6925,24.59351,19.21793,24.59351,20.72194,0,1.67112-1.38552,6.51737-2.94431,11.02943-2.07834,4.17781-6.40818,33.08825-10.0452,64.17118-8.14012,65.5081-10.738,74.53217-33.25319,117.64716-9.3525,17.88106-24.24711,50.63506-32.90679,73.02817-23.90069,61.66449-50.053,103.77685-77.24429,123.49611-43.99122,31.41717-37.23663,71.357,31.17484,188.83714,13.50908,22.72725,17.83892,32.754,15.06786,35.42786-5.71536,5.51469-48.14779,7.18581-83.65248,2.84093-46.41586-5.51469-43.99121-4.17781-46.41586-25.56819-3.98343-35.92918-2.4247-34.091-26.15224-31.75136-49.36017,5.18044-120.7159-11.02939-167.13181-37.60031-28.92335-16.54418-68.931-51.97194-92.48537-81.38379-9.00609-11.69788-17.49256-21.39038-18.53173-21.39038-1.03917-.33424-7.79371,28.24205-14.72146,63.00142-7.101,34.75938-14.20189,63.1685-15.76062,63.1685s-8.14012-10.02675-14.375-22.39312c-19.91726-37.93455-37.92939-46.95856-89.71426-45.45461-16.45339.66849-30.65526.33425-31.52123-.66849-1.03917-1.00263,11.77717-56.484,28.23056-123.16191s30.65529-124.16454,31.17485-128.17528c.69276-4.17781-2.77111-9.6925-8.65968-14.873l-10.04521-8.1885-.3464-41.77812c0-23.0615-1.73194-53.476-2.94432-68.18186-2.94431-27.23932,1.03918-49.96662,9.00609-49.96662,11.08438.33424,13.50908,6.18318,14.37505,36.26342.34641,16.54413,1.73193,48.96394,2.77111,72.35968l1.73193,42.11236,10.738,8.68987,10.39162,8.35563-7.101,30.41449c-3.63707,16.54412-16.107,66.51074-27.19141,111.29691-11.08438,44.45188-21.12964,85.5616-22.16876,91.07629l-2.07832,10.02675,23.55431,2.00537c32.56038,2.67376,50.05294,8.18855,63.90843,20.722,6.40818,5.84894,12.12355,10.361,12.47,10.02675.34641-.66849,5.71536-25.90243,11.77714-56.14975,6.06178-30.41449,12.12355-57.15249,13.50908-59.65917,2.77111-4.84625,3.29067-3.84357,40.00773,43.44924,33.25319,43.115,64.60118,71.69129,100.10587,91.74479,43.64481,24.89979,103.91615,36.59767,158.99175,31.08287,20.43682-2.00537,31.52125-2.00537,33.25319.33425,1.73193,1.67112,3.637,13.87031,5.02265,27.23931s2.94431,24.8998,3.637,25.56819c2.94431,2.84093,33.59959,6.85157,54.72913,6.85157l20.78323.33424-23.55429-43.115c-36.37065-66.845-47.80139-105.44793-40.00768-136.53091,3.29073-14.20456,7.79372-20.0535,33.25319-44.11768,16.107-15.54144,33.5996-35.59494,39.66138-46.123,12.81637-22.05887,12.81637-22.05887,3.98343-22.05887-3.637,0-6.75459-1.33688-6.75459-2.67381s-4.32984-5.18049-10.04521-8.1885c-10.04521-5.84893-10.738-15.20724-1.03912-15.20724,7.79371,0,24.59351,12.70055,24.59351,18.88369.34641,4.84625.69282,4.84625,3.637-.66844,4.67624-7.18582,26.49859-60.99606,26.49859-64.17118,0-1.67113-2.07834-2.67381-4.32984-2.67381-7.79371,0-12.47-6.85162-8.65968-13.70324,3.29072-6.18319,3.637-6.18319-14.375-7.18582-8.48653-.66844-9.3525.33425-9.3525,9.6925,0,8.1885,2.42475,12.36632,10.04521,17.54681,9.6988,6.85162,13.85549,19.38506,6.40818,19.38506-2.42475,0-2.77105,3.50937-1.38553,10.02675,1.73194,7.18581,1.03912,11.02943-2.07834,13.03475-7.10089,4.17781-9.00609,3.50937-11.43073-3.17513-1.03912-3.17513-6.40819-7.8543-11.77715-10.02675-13.85548-5.51469-22.51516-15.20724-17.49251-20.05349,2.94432-2.84093,7.44731-2.00537,17.83892,3.50937,15.76058,8.68987,22.51517,6.18318,9.00609-3.50937-5.369-3.50937-10.738-11.69788-12.81637-19.21794-2.07834-7.18581-5.02265-12.03211-7.10089-10.69518-1.73194,1.00268-5.369.33424-7.79371-1.67113-3.29073-2.84093-7.79372,9.35831-20.43683,58.99068-8.65968,34.09094-19.57085,70.35436-23.55428,80.38111-5.71537,13.369-8.14012,28.57624-9.6988,59.65917-2.42475,35.42786-3.637,42.44661-8.65968,46.123-4.32984,2.84093-7.1009,10.02675-8.48653,23.0615-3.637,33.75674-5.71537,42.78075-8.65968,42.78075-1.73193,0-7.4473-6.51743-12.47-14.5388-5.0226-7.85431-10.738-14.53881-12.81631-14.53881s-7.101,3.50932-11.43079,8.18855c-11.08438,11.36363-16.107,10.02675-22.16876-4.8463-2.94431-7.18581-6.40818-13.03475-7.79371-13.03475s-7.4473,4.17781-13.85549,9.6925c-6.40818,5.18045-13.50908,9.35826-15.41422,9.6925-2.07834,0-6.40818-9.6925-9.69885-22.05886-3.29066-12.03212-7.10094-23.0615-8.48647-24.39838-1.38553-1.67113-11.08438,1.67112-21.8224,7.18581-10.39162,5.5147-20.43683,9.35826-21.476,8.35563-1.38553-.66849-4.67625-11.69787-7.101-24.56556l-4.67624-23.0615-13.50908,2.33962c-27.53777,4.8463-27.19142,4.8463-28.23054-13.70324l-1.03917-17.21257-13.16272-2.00537c-19.57086-3.17512-17.83892.66849-38.96856-77.54017-4.67625-17.88106-10.04521-34.09093-11.77714-35.92918-1.73194-2.00537-9.35245-4.51206-17.14616-5.84894-20.78323-3.17513-49.36017-17.54681-65.294-32.75405-16.45339-16.20993-45.37674-56.81824-42.952-60.66181,1.03917-1.33688,9.00609-2.67381,18.18533-2.67381h16.45339l9.35244-27.57355,9.00609-27.90781L3075.93,857.60785c13.85549-6.51737,32.214-18.54949,41.39326-26.23667,30.30888-25.90244,37.23662-50.96931,28.23053-97.92792-7.4473-37.93452-7.10094-64.83964,1.03918-80.38111,9.00608-16.87837,26.49859-30.74868,49.70658-39.60565,26.49859-10.02674,75.33921-10.02674,113.615-.33422,41.0469,10.69519,96.12244,38.603,127.6437,64.83965,25.80588,21.3904,27.88412,22.39306,48.66735,24.39843,47.80139,4.84625,78.97624,22.39308,95.42963,53.81021,10.39161,19.385,10.738,22.7273,5.71536,55.81555-5.71536,37.26606-5.369,37.26606-29.26975,32.75405-36.89022-7.18581-54.03642-3.50937-77.59071,17.21257-31.86766,27.57356-57.8467,90.40785-76.55159,185.49484-3.29072,16.54412-7.79371,30.08024-9.69885,30.08024s-24.59351-6.85162-49.70658-15.20724c-36.02424-12.03212-46.41586-16.87837-46.41586-21.05618,0-8.35563,8.14012-7.52007,46.76227,5.51469,18.53173,6.18318,35.33148,11.36362,36.89021,11.36362s5.02261-8.35562,7.101-18.88368c8.14012-38.26875,26.845-100.60173,38.62215-128.17524,1.73193-3.50937-7.1009,1.00269-20.43682,11.02944-34.63872,25.234-54.38278,33.08824-87.11636,34.09093-14.72145.33425-31.17484,2.33956-36.37065,4.17781-12.12355,4.51206-42.60563,4.51206-55.07554,0-23.55434-8.35562-38.27579-32.75405-40.70049-66.845-1.38553-22.7273-1.38553-23.0615,8.14012-27.9078,19.22449-9.35831,57.15388-18.88369,83.65248-20.72193,34.63872-2.33957,54.72918,2.84093,92.139,24.89974,15.76062,8.68987,28.92335,15.54144,29.61606,14.873,2.94431-2.67381-37.583-28.242-55.76836-34.75937-23.20793-8.68987-71.87534-11.69787-111.53666-6.51738-32.214,4.17782-37.92938,2.00537-29.96247-12.03211,4.32984-7.52006,8.65968-9.35831,28.57694-13.03476,36.02425-6.18318,94.0441-6.18318,114.65413,0,31.00164,9.35831,70.663,33.08825,90.06066,53.81024l6.06178,6.85162,14.72145-17.54681c24.59351-29.24468,55.42195-38.93718,103.56975-33.08825,5.369.66844,7.10089-2.67381,10.738-21.39037,3.637-18.5495,3.637-24.06419-.69281-35.42787-12.12356-33.75673-40.7005-51.30354-86.76995-53.81023l-27.19141-1.67113-23.9007-21.3904c-53.17045-47.62705-134.05182-78.20864-196.22831-73.8637-30.65529,2.00534-48.1478,8.35562-64.9476,24.39843-19.2245,18.21525-20.78323,29.24468-12.47,80.38111,8.48648,49.96661,6.40819,68.18186-10.0452,93.08166-10.738,16.54412-42.086,40.60831-69.62385,53.476l-17.83892,8.35562-10.39161,30.08025c-9.69885,28.91043-10.738,30.08024-20.09047,30.08024-8.65968,0-9.35244.66844-6.75454,5.84894,1.73194,3.17512,10.39162,13.70324,18.87809,22.7273,17.83892,19.21794,48.321,35.42787,72.91451,38.26875,10.04521,1.33688,17.49257,4.17781,19.57086,7.52006,1.73193,3.17513,9.00609,28.242,16.7998,55.48136,7.4473,27.57356,15.41422,50.9693,17.49256,52.13911s10.39162,3.17513,18.53174,4.51206l14.375,2.00537v14.53875c0,15.54144,1.38553,16.20993,20.09047,11.02938,14.20189-3.84356,18.53173,0,21.476,20.38774,3.63708,22.39312,5.369,23.39575,25.45948,13.70325s25.28628-9.02412,28.23054,3.84356c1.38552,4.84631,3.98343,14.53881,5.71536,21.39038l3.29067,12.36636,13.50908-11.69787c11.08438-9.35826,14.37505-11.02938,18.53173-7.85431,2.77111,2.00537,4.67625,4.84631,4.67625,6.51743,0,1.33688,1.73194,6.51743,3.29067,11.02938l3.29067,8.68987,10.39161-8.35562c12.81632-10.361,17.49257-10.69524,24.24711-1.33688,5.369,7.52006,5.369,7.18581,5.369-5.84894.34641-8.68987,2.94431-16.54417,8.14006-22.72725,6.40819-8.18855,7.79372-14.53881,9.3525-48.29555,1.73194-30.08024,3.637-42.11236,9.3525-53.476,7.10089-14.873,42.43243-145.22072,39.66137-147.89453-2.42475-2.67381-25.28622,68.18187-37.583,117.48-6.75459,26.57088-13.16267,49.29818-14.375,50.63506-2.42475,2.33957-39.66132-11.02943-106.51405-37.6003l-26.845-10.69519-1.03917-13.70324c-.69276-10.361,0-13.70325,3.29067-12.70056,2.4247,1.00268,4.67624,5.84893,5.369,11.02943,1.03917,9.02406,3.29067,10.361,54.38277,29.91312,29.61612,11.36363,56.11472,21.39038,59.57859,22.05887,5.369,1.33688,7.101-2.33957,12.4699-23.73,10.738-45.45461,31.86767-113.13516,45.37675-144.71941,30.30887-72.02548,60.09819-94.75279,105.47493-80.38111,10.738,3.50938,12.47,5.1805,12.47,14.20456,0,19.71925-4.67625,21.05618-39.315,13.03476-4.67625-1.00269-7.79371-.33425-7.79371,2.00537,0,2.00537,3.637,3.50937,8.48652,3.50937s13.85549,2.33956,20.09042,4.512c11.08443,4.51206,11.77714,5.84894,11.77714,19.38506v14.53881l-25.80589-.66844c-24.2471-.66844-27.53782.33424-41.0469,9.02406l-15.06786,9.6925,11.77714,1.67113c8.65968,1.33688,12.12355.33424,13.85549-3.84357,4.67625-11.36363,38.62215-6.51738,41.73961,6.18318,2.07835,7.18582,4.32984,4.17781,18.53174-21.05618,19.91726-35.59493,24.93991-53.476,31.52125-112.46672,2.77106-24.89975,5.71537-49.96662,7.10089-55.48136,1.73194-8.68987.69282-10.69519-11.08443-18.21525-7.10089-4.51206-38.27574-30.74868-69.27743-58.65649-72.56816-65.17386-93.52454-75.86905-184.45117-93.08163-18.18533-3.50938-19.57086-4.17782-19.57086-12.70056,0-11.02944,2.4247-13.70322,11.43079-11.69788,4.32973,2.50677,24.76661,7.0188,45.89619,11.53083Zm-109.45831,524.06471c9.00609,1.67113,28.92335,2.84093,43.99116,2.84093h27.53777l6.40818,11.36363c3.29067,6.18318,8.14012,11.36363,10.738,11.36363,9.35244,0,24.2471,10.361,26.15224,18.21525,1.38553,4.51205.34641,12.03211-1.73194,16.20993-2.94431,6.85157-4.67624,7.52006-10.39161,4.51205-3.29067-2.00537-7.79371-2.84093-9.00609-2.67376-1.38553.33425-13.16272-.66849-25.80583-2.33961-19.91727-2.00537-26.4986-4.8463-48.66741-19.21793-16.45339-10.69519-25.45948-18.5495-25.28628-22.05887.34641-3.84357-2.7711-6.18318-10.738-7.85431-14.2019-2.67381-21.476-10.02675-14.37505-14.5388a12.47817,12.47817,0,0,1,9.69885-1.00269c2.59786,1.33693,12.29671,3.67655,21.476,5.18055Zm20.78323,50.30086,36.71706,27.57356,16.45339-2.00537c9.00609-1.00263,18.18533-2.33961,20.09047-2.67376,2.07834-.33424,3.63708,2.33962,3.63708,5.84894,0,5.18044-3.98344,7.18581-20.78324,11.02938l-20.43682,4.51206-40.00773-30.08025c-21.8224-16.54417-40.35408-30.74868-41.0469-31.08293-2.07834-1.67112,2.77111-11.02943,5.71537-11.02943,1.73188,0,19.39765,12.36631,39.66132,27.9078Zm-296.85385,103.77681c6.75454,2.00537,6.75454,2.84093,1.03917,28.91043-5.369,24.8998-13.50908,26.90507-14.2019,3.50932-.69276-16.54417-6.75453-24.56555-17.83891-24.56555-9.35245,0-27.19139,12.70051-31.00165,21.39037-4.32984,11.69788-1.38555,20.0535,13.85549,35.42787,30.65529,31.08288,36.37066,48.62969,23.55434,73.02817-8.48648,16.20993-26.49862,27.9078-49.70655,32.754-22.86155,4.51206-36.89024,2.00537-50.05294-9.35826-14.20187-12.03212-16.79977-21.05613-7.79371-29.91317,8.65968-8.35562,18.87809-4.17781,21.8224,9.6925,5.0226,22.05887,31.52123,24.8998,53.86322,5.84894,9.00606-7.52006,11.77717-12.36636,11.77717-21.05613,0-14.20456-3.98346-21.72462-23.90072-41.77812-17.83895-18.54944-21.82241-27.9078-18.53171-45.45461,2.94428-13.87031,24.2471-35.42786,39.66132-39.93992,10.56476-3.0079,33.7727-2.33941,47.455,1.50416Zm136.47658,91.74478c6.06177,3.50932,1.73193,10.02675-6.40819,10.02675-6.40818,0-10.39161,9.6925-18.87809,42.78075-2.94431,12.36636-7.4473,11.36363-13.50908-3.17518-2.7711-6.51743-6.06177-14.87305-7.79371-18.54944-2.4247-5.18045-3.63707-3.17518-8.48647,12.03212-5.369,17.88105-13.85549,25.56818-23.9007,22.05886-1.73193-.33424-9.35244-2.00537-16.7998-2.84093-11.43078-2.00537-13.50907-3.17518-12.81631-9.35826.69276-5.51469-.69276-7.18581-7.4473-7.18581-4.67625,0-8.48648,1.33688-8.48648,2.84093,0,1.67112-4.32984,7.52006-9.69885,13.03475-10.39162,10.69524-23.90069,13.70324-23.90069,5.18045,0-2.67376,2.7711-4.8463,6.40818-4.8463,6.06177,0,46.0695-47.9613,42.60563-51.30355-3.63707-3.17518-12.12355,2.84093-12.12355,9.02411,0,6.85157-4.67625,8.68987-8.48647,3.17518-6.40819-10.02675,9.35244-22.72726,29.2697-22.72726h10.04521l-2.07835,18.54945c-1.38552,10.361-2.94431,22.72725-3.98343,27.23931-1.73193,8.18855-.69276,8.68987,12.12355,10.02675,16.107,1.33688,17.14616.33424,24.59351-27.57356,3.98344-14.5388,3.98344-18.54944.69277-18.54944-6.06178,0-12.47,8.35562-11.08438,15.20719.69276,3.50932-1.03917,5.84894-3.98343,5.84894-7.4473,0-8.14012-12.36637-1.03917-20.38774,3.98343-4.84631,10.39161-7.52007,19.22449-8.18856,12.81632-.66849,13.16273-.33424,17.83892,14.53881,5.369,18.54944,9.35245,19.71925,12.47,3.84357,2.4247-10.69524,12.12355-24.06424,18.18533-24.06424a39.281,39.281,0,0,1,7.4472,3.34235Zm77.5907,47.12574c0,2.67376-4.32984,5.51469-10.0452,6.85157a91.53,91.53,0,0,0-10.04521,2.84093c0,.16717-5.369,20.38774-11.77714,44.45188s-11.77715,45.45461-11.77715,47.2928c0,2.33962,2.94432,4.17781,6.75454,4.17781s6.75454,2.33962,6.75454,4.84631c0,3.84356-5.0226,4.8463-26.4986,4.8463-29.96247,0-36.71706-3.84357-19.22449-11.02938,12.81631-5.18045,11.43078-2.67376,25.45947-57.15249,3.98344-15.20719,7.79372-30.08024,8.65968-33.42249,1.38553-3.84357,0-5.51469-5.0226-5.51469-3.98343,0-7.101-2.33962-7.101-4.51206,0-3.50932,4.67625-5.18044,16.107-6.18318,34.81187-2.33962,37.75613-2.00537,37.75613,2.50669Zm152.75677,42.78075c8.65968,3.17518,6.40818,11.02938-2.94431,11.02938-9.69885,0-12.81632,5.84894-20.78323,39.60568-2.77111,12.36636-6.40819,22.05886-8.48648,22.05886-2.77111,0-8.48647-11.36363-19.2245-37.26606-2.4247-5.18044-3.63707-2.84093-8.48647,12.03212-2.94432,10.02675-7.79371,20.722-10.738,23.39575-6.06177,5.84893-23.55434,6.85157-26.845,1.67112s5.71536-9.35826,12.81631-5.84894,11.43079-3.17517,18.18533-27.9078c6.75454-24.06424,6.40818-27.9078-2.77111-24.56555-6.06177,2.33961-7.79371,5.18044-7.79371,13.70324,0,13.70324-9.35244,15.54144-11.08438,2.67376s11.43079-25.23394,27.53777-26.23668l13.16272-1.00263,6.06178,18.88369c3.29067,10.69523,6.75454,19.71925,7.4473,20.722,1.03917.66849,3.98343-6.51742,7.101-16.54417,3.29067-10.361,8.48647-19.71925,12.81631-23.0615C3354.77136,1431.30509,3353.559,1431.30509,3360.31358,1433.97885Zm-98.20079,5.18044c3.98343,2.84094,5.02261,7.18582,3.63708,13.03476-2.07835,11.02938-6.75454,12.03211-8.48648,1.67112-.69276-5.18045-3.63707-7.52006-11.08438-8.18855-13.16272-1.33688-27.88417,13.03475-31.00164,29.57893-2.4247,13.87031,2.94432,21.72462,14.72146,21.72462,8.48647,0,15.06786-10.02675,8.48647-12.36637-8.14012-2.67376-3.63707-7.18581,7.101-7.18581,12.81632,0,17.14616,2.67376,12.81632,7.8543-1.38553,2.00537-5.369,11.02939-8.48648,20.0535-8.65968,25.90243-24.93987,35.59494-39.315,24.39838-7.44731-5.84894-7.44731-6.51743-2.07835-8.35562,2.94431-1.33688,8.14012-.33425,11.08438,2.00537,4.67625,3.50932,6.06178,3.17517,10.04521-2.00537,7.4473-9.69251,5.71536-14.53881-5.369-14.53881-14.72146,0-23.55434-10.02675-23.55434-27.23931.34646-29.41165,40.70054-55.64833,61.48377-40.44114Zm149.4661,3.17518c-1.03912,4.17781-2.94431,18.88369-3.98343,32.41986-2.42475,23.0615-2.07834,25.23394,3.637,25.23394,4.32984,0,5.02266,1.00264,2.42476,3.50932-2.07835,2.00537-7.79372,2.84094-13.16267,2.33962-8.48648-1.00263-9.69886-2.33962-9.00609-10.02675,1.03917-14.20456-11.77715-11.69787-27.19142,6.18318-9.69885,11.02938-14.72145,14.20456-20.78323,13.70325-9.69885-1.33688-11.08438-6.85157-2.4247-8.68987,3.29067-.66849,8.14012-2.67376,10.39162-4.51206,6.75454-5.18045,42.086-54.47862,40.35408-56.14975-3.63707-3.17518-12.81631,2.84093-12.81631,8.35562,0,7.52007-6.06178,11.69788-10.738,7.18582-10.0452-9.6925,9.69886-26.23668,32.214-26.57092,11.77714,0,12.81637.66849,11.08443,7.01874Zm66.33312-5.18044c7.44731,2.67375,7.44731,24.06423.34641,24.06423-2.94431,0-5.02265-2.84093-5.02265-8.18855,0-6.51743-1.73194-8.18855-8.14012-8.18855-19.57086,0-36.02425,36.26342-25.45948,55.48136,4.32984,7.52006,12.81637,7.8543,22.86157,1.00263,11.43074-7.8543,13.85549-2.00537,2.94431,7.18582-12.12355,9.6925-22.86157,9.6925-34.98512,0C3401.88,1484.61391,3442.23418,1423.9521,3477.912,1437.154Zm107.55318,6.18308c6.40818,5.51469,8.65968,11.02938,8.65968,19.385,0,33.08825-34.63872,55.14712-58.53941,36.93182-16.45339-12.70051-9.6988-45.12037,12.47-57.988,14.5483-8.68967,26.67185-8.02128,37.40977,1.67123Z"/>
      <path class="cls-2" d="M3337.10565,831.37128c26.15224,7.85431,43.2984,16.54412,65.294,33.08825,20.09042,15.54144,21.82235,25.56818,6.40819,36.59762l-9.00609,6.51737-24.59351-16.20993c-48.1478-32.08561-72.22175-38.26874-116.03971-29.91312-22.51516,4.17781-22.51516,4.51206-9.35244,6.18318,12.81632,1.67113,13.50908,2.33957,14.37505,14.53881.69276,9.35831,3.98343,15.87568,11.77714,23.39574,8.65968,9.02407,12.81632,10.69519,26.4986,10.69519,11.77714,0,16.7998,1.33688,18.53173,5.1805,3.29067,8.35562-3.63707,11.02943-24.59351,9.02406-18.87809-2.00537-20.43682-2.84093-33.25319-17.881-7.4473-9.02407-13.16272-18.88369-12.81631-22.39306.69276-4.51206-1.03917-6.51738-5.369-6.51738-7.44731,0-15.06787-8.1885-12.12356-13.03475,2.77111-3.84357-1.73193-4.17781-8.48647,0-6.75454,3.84357,0,15.20724,22.86157,39.60567,36.02425,37.26606,75.33921,46.12306,118.2912,26.57088,23.20793-10.69519,67.19909-44.11768,67.19909-51.63775,0-6.51737-40.35408-36.26342-64.25483-46.95861-11.77714-5.1805-28.23053-10.361-36.71706-11.36363C3317.53474,825.52234,3317.88115,825.85659,3337.10565,831.37128Z"/>
      <path class="cls-2" d="M3514.80223,862.45421c-13.16267,5.51469-34.29231,32.41981-46.41586,58.32224-10.04521,21.72462-10.39162,23.73-3.98343,17.21256,2.771-2.33956,12.81636-9.35831,22.16875-15.20724,13.85549-8.35563,22.51517-11.36363,40.00768-13.03475,21.47605-2.00537,21.82235-2.33957,12.12355-6.18319-7.10089-2.84093-12.12355-2.84093-17.83892-.66844-9.00608,4.17782-10.738,1.67113-11.77714-19.385l-.69282-14.20456,26.15219.33424c17.49251.33425,25.80589-.66844,24.93992-3.17512-2.5979-8.1885-29.0965-10.36095-44.68392-4.01069Z"/>
      <path class="cls-2" d="M3198.89713,899.5532c2.77111,37.26606,23.20793,57.15248,57.84665,55.14711l18.87809-1.00268L3257.78295,942.334c-16.107-10.02675-23.55433-17.88106-52.824-53.81024l-7.79371-9.3583,1.73193,20.38774Z"/>
      <path class="cls-2" d="M3546.843,1455.36922c-5.02266,8.18856-6.06177,13.87032-4.67625,23.39575,2.77106,16.87832,3.637,18.2153,15.06787,18.2153,17.49251,0,29.61606-27.9078,18.87814-43.78349-8.14012-11.69787-20.61008-10.86231-29.26976,2.17244Z"/>
    </g>
    <path class="cls-3" d="M3527.44534,1440.83042c0,1.33688-2.2515,3.008-5.19581,3.67649a28.7319,28.7319,0,0,0-5.19581,1.50406c0,.16707-2.771,11.02938-6.06177,23.89706s-6.06178,24.56555-6.06178,25.56819c0,1.1698,1.55879,2.33961,3.46387,2.33961s3.46388,1.16981,3.46388,2.67376c0,2.17244-2.59791,2.67376-13.68234,2.67376-15.41427,0-18.87814-2.17244-9.87206-6.016,6.58134-2.84093,5.88863-1.33688,13.16267-30.74873,2.07835-8.18856,3.98344-16.20993,4.503-18.04813.69281-2.17244,0-3.008-2.59791-3.008-2.07834,0-3.637-1.16981-3.637-2.50669,0-2.00537,2.42475-2.84093,8.31327-3.34225,17.83913-1.16981,19.39781-1.00264,19.39781,1.33688Z"/>
    <path class="cls-2" d="M3384.73389,1474.08584c-3.11747-3.84357,5.88857-17.71388,10.56481-16.71125,4.50305,1.00264,6.06183,16.71125,1.90514,18.71662a5.078,5.078,0,0,1-2.07834.16707C3389.41008,1475.924,3385.94621,1475.58989,3384.73389,1474.08584Z"/>
    <path class="cls-2" d="M3015.83154,1380.00154c-2.5979-3.84357,4.8494-17.71388,8.65968-16.71125,3.63708,1.00264,5.02261,16.71125,1.55873,18.71662-.3464.16707-.51956.16707-1.73193.16707C3019.815,1381.83974,3016.87066,1381.67267,3015.83154,1380.00154Z"/>
    <path class="cls-3" d="M3566.24074,550.95658c-.17315.83556-1.55878,1.67112-3.11746,2.00534a14.23436,14.23436,0,0,0-2.94431.66844c0,.1671-2.42475,6.6845-5.19581,14.53878s-5.19581,14.873-5.369,15.54147c-.17315.83556.69282,1.504,1.73194,1.67112s1.90508,1.00269,1.73193,1.83825c-.17315,1.3369-1.55878,1.504-7.79371.83556-8.48653-1.00268-10.21846-2.50669-5.02265-4.34493,3.81028-1.33691,3.29072-.50135,9.69879-18.38237,1.73194-5.01338,3.46388-9.85963,3.98344-11.02944.51956-1.3369.17315-1.83824-1.21238-2.00534a1.99629,1.99629,0,0,1-1.90509-1.83825c.17315-1.16978,1.55879-1.67112,4.8494-1.504,10.04531.33424,10.91128.50134,10.56487,2.00537Z"/>
    <path class="cls-2" d="M3588.92906,558.978c-5.02265-.66844-9.00609,4.512-10.56476,7.85428-1.90509,4.67915-1.38553,11.36365,2.25149,13.369,4.67625,2.6738,14.72146-2.33957,15.76057-9.69253C3597.06918,565.82958,3593.95172,559.64642,3588.92906,558.978Z"/>
    <path class="cls-2" d="M3517.40013,550.28811c-3.46387.66844-1.55878,9.02407-8.65968,19.88638-.866,1.3369-1.73193,2.50668-1.38553,3.34225,1.38553,2.50668,16.28024,2.8409,19.91727-6.01606C3530.73606,559.3122,3521.21041,549.61967,3517.40013,550.28811Z"/>
    <path class="cls-2" d="M3201.495,465.89632c-3.46387.66845-1.55873,9.02407-8.65968,19.88638-.866,1.33691-1.73194,2.50669-1.38553,3.34225,1.38553,2.50669,16.28019,2.84091,19.91726-6.016C3214.831,474.75328,3205.47852,465.06075,3201.495,465.89632Z"/>
    <path class="cls-2" d="M3126.50224,443.33613c-5.02261-.66845-9.00609,4.512-10.56482,7.85429-1.90514,4.67915-1.38553,11.36365,2.25149,13.369,4.67625,2.6738,14.72146-2.33957,15.76063-9.69253C3134.6423,450.18776,3131.52484,444.00459,3126.50224,443.33613Z"/>
    <path class="cls-2" d="M3083.55019,430.13426c-2.25149.33422-1.03917,5.34759-5.71536,11.53076-.69277.83556-1.21238,1.504-.866,2.00535.866,1.504,10.738,1.67112,13.16272-3.50936C3092.20987,435.31474,3086.1481,429.63292,3083.55019,430.13426Z"/>
  </g>
  <text class="cls-4" transform="matrix(1.03639, 0.00099, -0.00104, 1, 348.28583, 593.19236)"><tspan class="cls-5">S</tspan><tspan class="cls-6" x="146.94939" y="0">A</tspan><tspan x="333.88274" y="0">N IGN</tspan><tspan class="cls-7" x="1041.11533" y="0">A</tspan><tspan x="1218.8813" y="0">CIO</tspan></text>
  <text class="cls-8" transform="translate(358.95215 334.51465) scale(1.03639 1)">CENT<tspan class="cls-9" x="209.14979" y="0">R</tspan><tspan class="cls-10" x="259.12796" y="0">O DE </tspan><tspan class="cls-11" x="457.03597" y="0">E</tspan><tspan class="cls-12" x="503.93432" y="0">S</tspan><tspan class="cls-13" x="547.98324" y="0">T</tspan><tspan x="597.8064" y="0">UDI</tspan><tspan class="cls-14" x="734.41576" y="0">O</tspan><tspan x="795.79026" y="0">S </tspan><tspan class="cls-15" x="855.93273" y="0">P</tspan><tspan class="cls-16" x="901.3682" y="0">A</tspan><tspan class="cls-17" x="957.89141" y="0">R</tspan><tspan class="cls-18" x="1006.17537" y="0">A </tspan><tspan x="1073.24779" y="0">J</tspan><tspan class="cls-19" x="1115.60109" y="0">Ó</tspan><tspan class="cls-10" x="1176.20669" y="0">VEN</tspan><tspan class="cls-11" x="1337.68924" y="0">E</tspan><tspan x="1384.58759" y="0">S</tspan><tspan class="cls-18" x="1430.48383" y="0" xml:space="preserve"> Y </tspan><tspan class="cls-16" x="1505.94955" y="0">A</tspan><tspan x="1562.47275" y="0">DU</tspan><tspan class="cls-20" x="1675.59548" y="0">L</tspan><tspan class="cls-21" x="1714.17592" y="0">T</tspan><tspan class="cls-22" x="1761.68816" y="0">O</tspan><tspan class="cls-23" x="1823.06407" y="0">S</tspan></text>
  <text class="cls-24" transform="translate(343.68652 796.9751) scale(1.03639 1)">VIL<tspan class="cls-25" x="238.53553" y="0">L</tspan><tspan class="cls-26" x="320.69233" y="0">A </tspan><tspan class="cls-27" x="451.0351" y="0">A</tspan><tspan x="560.87683" y="0">LEM</tspan><tspan class="cls-27" x="869.15188" y="0">A</tspan><tspan x="978.99361" y="0">N</tspan><tspan class="cls-28" x="1090.92908" y="0">A</tspan></text>
  <path class="cls-29" d="M367.3614,1429.978h22.77624a4.5515,4.5515,0,0,1,4.26258,2.8474l8.8409,22.67373a4.24918,4.24918,0,0,1,.21252,2.3494l-4.43259,22.9198c5.44663,12.35045,14.43932,20.65243,29.3462,28.099l23.46845-4.39414a4.70988,4.70988,0,0,1,2.48954.21092l23.57168,8.6711a4.40188,4.40188,0,0,1,2.93279,4.10119v20.9981a15.49681,15.49681,0,0,1-18.87191,15.11583c-18.538-3.89028-52.88752-13.78587-76.945-36.99862-23.04949-22.23432-30.77313-52.94638-33.36589-69.5445-1.48765-9.47961,6.38779-17.04924,15.71445-17.04924"/>
  <text class="cls-30" transform="translate(544.48682 1534.99414) scale(1.03639 1)">32253<tspan class="cls-31" x="336.03772" y="0">4</tspan><tspan x="407.05685" y="0">253</tspan></text>
  <path class="cls-2" d="M361.70553,1735.41523a14.55147,14.55147,0,0,1-10.47924-4.20349,13.58062,13.58062,0,0,1-4.36388-10.11846v-85.9317a13.53653,13.53653,0,0,1,4.36388-10.1113,14.594,14.594,0,0,1,10.47924-4.21066H480.45047a14.5637,14.5637,0,0,1,10.48667,4.21066,13.52622,13.52622,0,0,1,4.35645,10.1113v85.9317a13.5702,13.5702,0,0,1-4.35645,10.11846,14.52155,14.52155,0,0,1-10.48667,4.20349Zm59.37247-51.38a7.60326,7.60326,0,0,0,1.95188-.27212,7.9939,7.9939,0,0,0,1.94445-.802l52.50752-31.68731a5.83754,5.83754,0,0,0,2.96862-5.19171,5.802,5.802,0,0,0-3.15415-5.37073,6.0893,6.0893,0,0,0-6.49387.179L421.078,1670.96645l-49.72444-30.07609a5.95759,5.95759,0,0,0-6.49386-.08594,5.85945,5.85945,0,0,0-3.15417,5.27764,6.39334,6.39334,0,0,0,.74216,3.13651,4.844,4.844,0,0,0,2.22647,2.0552l52.50753,31.68732a7.95981,7.95981,0,0,0,1.95187.80919,7.353,7.353,0,0,0,1.94445.26495"/>
  <text class="cls-32" transform="translate(546.00391 1710.4873) scale(1.09939 1)"><tspan class="cls-33">c</tspan><tspan x="42.13052" y="0">e</tspan><tspan class="cls-34" x="89.95711" y="0">n</tspan><tspan x="139.77033" y="0">t</tspan><tspan class="cls-35" x="175.16549" y="0">r</tspan><tspan x="211.68299" y="0">oestudiossanignacio</tspan><tspan class="cls-36" x="1037.1767" y="0">@</tspan><tspan class="cls-37" x="1102.35755" y="0">vt</tspan><tspan class="cls-38" x="1185.23465" y="0">r</tspan><tspan x="1217.60922" y="0">.n</tspan><tspan class="cls-39" x="1294.18356" y="0">e</tspan><tspan x="1341.23468" y="0">t</tspan></text>
  <rect class="cls-2" x="87" y="1841.52016" width="4078" height="68.47984"/>
  <rect class="cls-2" x="87" y="74" width="4078" height="68.69848"/>
  <text class="cls-40" transform="matrix(1.03639, 0.00099, -0.00104, 1, 361.5007, 1004.46669)">- HO<tspan class="cls-41" x="225.05018" y="0">R</tspan><tspan class="cls-42" x="286.68192" y="0">A</tspan><tspan class="cls-43" x="358.06807" y="0">R</tspan><tspan x="421.9834" y="0">I</tspan><tspan class="cls-44" x="448.75244" y="0">O</tspan><tspan x="529.1651" y="0">S M</tspan><tspan class="cls-42" x="695.38351" y="0">A</tspan><tspan x="766.76966" y="0">Ñ</tspan><tspan class="cls-45" x="840.43752" y="0">A</tspan><tspan class="cls-46" x="911.82414" y="0">NA,</tspan><tspan class="cls-47" x="1086.2408" y="0"> </tspan><tspan class="cls-48" x="1106.16234" y="0">T</tspan><tspan class="cls-42" x="1160.53197" y="0">A</tspan><tspan class="cls-43" x="1231.91812" y="0">R</tspan><tspan x="1295.83346" y="0">DE</tspan><tspan class="cls-49" x="1433.83126" y="0" xml:space="preserve"> Y</tspan><tspan x="1518.60051" y="0" xml:space="preserve"> N</tspan><tspan class="cls-50" x="1613.84926" y="0">O</tspan><tspan x="1696.85458" y="0">CHE</tspan><tspan x="0" y="149.91504">-</tspan><tspan class="cls-49" x="47.83262" y="149.91504"> </tspan><tspan class="cls-42" x="66.50847" y="149.91504">A</tspan><tspan x="137.89462" y="149.91504">P</tspan><tspan class="cls-51" x="200.7711" y="149.91504">OY</tspan><tspan x="339.4968" y="149.91504">O </tspan><tspan class="cls-52" x="443.46158" y="149.91504">S</tspan><tspan class="cls-53" x="501.35673" y="149.91504">O</tspan><tspan x="584.36252" y="149.91504">CIOEM</tspan><tspan class="cls-53" x="913.16971" y="149.91504">O</tspan><tspan x="996.1755" y="149.91504">CION</tspan><tspan class="cls-42" x="1250.38055" y="149.91504">AL</tspan><tspan x="0" y="299.83105">-</tspan><tspan class="cls-47" x="47.83262" y="299.83105"> </tspan><tspan class="cls-54" x="67.75416" y="299.83105">T</tspan><tspan class="cls-42" x="122.12426" y="299.83105">A</tspan><tspan x="193.51041" y="299.83105">LLE</tspan><tspan class="cls-55" x="369.27452" y="299.83105">R</tspan><tspan class="cls-56" x="433.18939" y="299.83105">E</tspan><tspan x="492.53988" y="299.83105">S E</tspan><tspan class="cls-57" x="632.92351" y="299.83105">X</tspan><tspan x="699.6407" y="299.83105">T</tspan><tspan class="cls-58" x="764.48983" y="299.83105">R</tspan><tspan class="cls-59" x="826.12203" y="299.83105">A</tspan><tspan x="892.94381" y="299.83105">CU</tspan><tspan class="cls-55" x="1035.1955" y="299.83105">RR</tspan><tspan x="1163.0257" y="299.83105">ICU</tspan><tspan class="cls-60" x="1332.04643" y="299.83105">L</tspan><tspan class="cls-42" x="1386.72655" y="299.83105">A</tspan><tspan class="cls-43" x="1458.1127" y="299.83105">R</tspan><tspan class="cls-56" x="1522.02803" y="299.83105">E</tspan><tspan class="cls-61" x="1581.37852" y="299.83105">S</tspan></text>
</svg>
