<svg xmlns="http://www.w3.org/2000/svg" width="1102.88963" height="1425.93617" viewBox="0 0 1102.88963 1425.93617">
  <defs>
    <style>
      .cls-1 {
        fill: #035bad;
      }

      .cls-2 {
        fill: #f7f9fa;
      }
    </style>
  </defs>
  <g id="Capa_2" data-name="Capa 2">
    <g id="Capa_1-2" data-name="Capa 1">
      <g>
        <g>
          <path class="cls-1" d="M202.89127,4.519C131.70869,19.72621,66.41471,62.507,18.61328,125.84262l-15.41423,20.722L2.85267,571.69865c0,233.79033-1.03916,442.34672-2.07832,463.0686-1.73193,34.75938-1.03916,39.93993,7.10094,63.00143,67.89189,194.519,311.92165,338.90406,554.21947,327.54043,130.06839-6.18318,245.76163-50.9693,349.851-136.19666,55.07554-44.78612,113.96136-113.13516,154.66186-178.97741l20.78323-34.091,2.42475-130.34772c1.38553-71.69129,4.32984-259.52564,7.10089-417.44692,7.1009-403.40949,7.1009-408.59,3.98343-408.59-1.73193,0-18.53173,3.17514-36.89021,7.18584-29.96247,6.51739-44.33751,7.18584-113.26865,7.52006-67.8919,0-85.038-1.3369-122.621-7.52006-54.03642-9.35829-140.46-30.74869-213.37452-52.47331-30.82838-9.19115-74.47313-22.393-97.68112-29.24465C405.52776,11.37058,339.8874-.32729,270.78317.00694c-26.32544.33422-56.8075,2.33957-67.8919,4.512ZM352.35736,29.25162C410.55042,37.10591,453.15605,48.13533,604.52724,93.757c177.17707,53.81022,246.80091,68.18188,331.14611,68.18188,47.10867,0,99.2399-7.52006,125.3922-18.21526,6.75459-2.6738,13.16267-3.50936,14.72145-2.00535,2.42475,2.33958-9.6988,886.6987-12.81637,900.90326-1.73193,8.68987-40.70049,71.0228-62.86925,100.26748-62.86925,83.38916-141.84559,149.89991-226.53719,190.67529-148.25372,72.02543-324.04521,72.35967-480.2658,1.00263C172.92885,1279.41985,80.61666,1188.6778,35.41315,1081.2244l-10.738-25.90243,1.38556-450.86942c1.03916-394.38543,1.73193-452.03923,6.06177-461.56466,8.1401-16.2099,51.09211-56.81824,79.66905-74.86638,63.562-39.77257,140.11353-52.13889,240.56583-38.76989Z"/>
          <path class="cls-1" d="M229.73627,48.30244C163.57633,58.32919,108.674,87.90809,65.722,136.53782L50.30773,154.08463l-2.4247,444.352-2.07832,444.01785,10.39162,27.23931c33.25316,86.89848,104.26253,165.44134,197.61389,219.58582,84.3453,48.62969,163.66794,71.35705,260.13674,74.86637,97.16161,3.50932,164.3607-10.361,250.09158-51.30355,54.38283-25.90243,96.46885-55.48136,144.61665-101.77153,45.37674-43.78349,78.97623-84.89311,110.67074-136.86515l21.82235-35.09362,5.02266-327.54044c2.94431-180.31434,6.40818-375.83593,7.4473-434.99373l2.42475-107.2862-28.23053,6.18316c-41.0469,9.02407-112.22942,11.02942-162.62882,4.512-75.33921-9.69253-132.49309-24.0642-304.12795-76.53751C478.096,78.21546,411.07,61.00289,364.481,53.14859c-37.58309-6.35016-107.89969-8.68974-134.7447-4.84615ZM206.52834,95.42815c11.77717,4.512,12.12355,5.18049,9.69885,18.54948-2.77111,15.87569-3.98346,18.88372-8.65968,18.88372-1.73193,0-2.94428-4.84627-2.94428-11.02942,0-30.7487-37.583-22.05885-54.0364,12.70054-8.65968,18.54948-8.65968,49.96663.34639,59.32493,9.35244,9.69253,24.93986,9.35829,34.29233-1.00267,8.14009-8.68985,16.107-10.6952,16.107-3.50936s-19.2245,21.05617-32.5604,23.39574c-15.76063,2.84091-34.29234-6.18315-41.04688-19.71927-6.75453-13.70322-5.369-37.26609,3.29067-56.484,8.1401-18.54948,28.23056-37.93453,42.43243-41.10967,5.369-1.00267,11.08438-2.33957,12.81632-2.84091,5.88857-2.33957,8.14009-2.00534,20.26364,2.84091Zm51.78487,32.0856c0,2.6738-3.29066,5.18049-7.44733,5.84894-9.69885,1.33691-12.12355,9.02408-2.7711,9.02408,4.32984,0,6.75453,1.67112,6.06177,3.84359a7.25621,7.25621,0,0,1-6.40816,4.17781c-2.7711,0-5.0226,3.17514-5.71539,7.18584-1.03917,5.51472.69276,7.52006,5.71539,7.52006A13.78431,13.78431,0,0,0,258.14,159.26514c3.29067-5.18049,3.29067-5.18049,6.75454,0,2.07834,3.17514,6.06177,5.84893,8.65968,5.84893,5.71536,0,15.76062-20.72195,13.85548-28.57623-1.03917-4.17781-2.42469-3.17514-5.0226,3.50936-2.4247,5.18049-5.369,8.18852-7.4473,7.18584-9.00609-5.51471,3.29067-21.05616,16.7998-21.05616,8.14012,0,9.69885,1.67112,11.77714,12.03209l2.4247,12.36632,6.40818-12.36632c7.44731-13.70322,7.101-13.369,36.02425-7.52006,13.16272,2.67379,21.8224,2.8409,23.20793,1.00267,1.03917-1.67113,2.94431-1.33691,4.32984,1.3369,1.73193,2.33958,6.06177,4.512,10.04521,5.18049,11.08437,1.67112,20.09046,7.18584,20.09046,12.36632,0,2.33958-3.98343,7.18584-8.65968,10.6952-8.48647,5.84894-8.65968,6.85161-5.0226,17.881,5.0226,14.873,13.16272,13.03478,11.08438-2.67379-2.77111-22.7273,29.2697-37.60031,41.73966-19.38505,3.29067,5.18049,4.67625,11.02942,3.29067,16.20991-2.77111,9.69252-21.12964,22.05884-30.30888,19.71927-3.29066-1.00267-9.00608.33422-12.47,2.33958-8.65968,5.18048-17.14615-.33422-21.476-13.369-2.94431-10.6952-8.48648-13.87034-8.48648-5.51471,0,2.67379-2.94431,4.84626-6.40818,4.84626-7.79371,0-12.12355-5.18048-7.101-8.18851,2.07835-1.33691,1.73194-4.17782-.69276-8.18852-2.94431-4.512-2.94431-8.18851,0-14.20456,2.94431-6.85161,2.94431-8.35562-.34641-8.35562-6.06177,0-16.45339,22.05884-14.20189,29.5789,2.07834,6.18316,1.73193,6.18316-13.16273,1.67113-5.71536-2.00535-5.71536-2.6738-1.38553-7.85429,8.48648-9.02407,16.4534-25.90243,13.16273-27.90777-5.369-3.17514-13.85549,2.00534-13.85549,8.35562,0,3.50936-1.73193,5.84894-3.98343,4.84627-2.4247-.66846-3.98343-5.51472-3.63708-10.69521.69277-8.68984.34641-8.35562-5.71536,3.50936-3.63708,7.18585-6.75454,15.54147-6.75454,18.54949,0,10.6952-7.10095,9.35829-12.12355-2.84091l-5.369-12.36633-5.0226,12.36633c-4.67625,11.36365-5.71537,12.03209-19.2245,11.36365a153.36207,153.36207,0,0,0-27.53777,1.67113l-13.85549,2.67379,1.73194-18.54948c1.03917-13.70322.69276-17.881-2.4247-16.2099-2.07832,1.3369-3.29067,5.51471-2.94428,9.35829.69276,3.84359-.34639,7.85428-2.4247,8.68985-1.73194,1.00267-3.63708-2.84091-4.32984-8.35563-.69277-8.18851,1.03917-11.69787,8.48647-16.87835,5.369-3.50936,13.16272-7.18584,17.839-8.18852,4.67622-.66845,9.35244-1.67112,11.08438-2.00534,1.73193.16708,2.7711,1.67108,2.7711,4.34489Zm262.21508,49.96662c7.44731,7.18584,11.77715,9.02408,19.57086,7.85428,13.16272-1.67112,34.29231,4.84627,34.29231,11.02942,0,5.51472-3.98343,5.84894-9.00609,1.00268-4.32984-4.17782-14.375-1.67113-14.375,3.50935,0,1.67113,2.4247,3.17514,5.02261,3.17514a5.1181,5.1181,0,0,1,5.0226,5.18049c0,3.50936-2.07834,4.512-6.75454,2.8409-3.98343-1.3369-9.35244-.33421-12.12355,2.00536-4.32984,3.50937-3.98343,4.512,2.77111,8.1885,5.0226,2.67381,8.48647,2.84091,9.69885.66844a4.32839,4.32839,0,0,1,6.06178-1.00268c2.94431,1.67112,2.94431,3.17512,0,6.85162-5.02261,5.84894-6.40819,5.84894-24.24711-1.67113l-15.58737-6.51735,11.77715-11.69787c11.43078-12.03209,14.20189-17.881,8.14012-17.881-2.07835,0-5.02261,3.50936-6.75454,8.18852-2.07835,4.84626-5.71537,8.18851-9.69886,8.18851-3.63707,0-7.79371,1.67112-9.00608,3.50936-2.77111,4.17782-30.65529,2.00534-35.33148-2.6738-2.07835-2.00534.3464-7.18584,7.10094-13.87034,11.77715-12.36632,13.85549-21.72462,3.29067-16.2099a13.2626,13.2626,0,0,0-6.75454,11.36365c0,5.18048-2.07834,8.18851-5.0226,8.18851-10.738,0-2.94431-21.05616,9.35244-25.90243,13.33593-5.34762,22.68837-3.50938,32.56037,5.6818Zm144.78985,10.6952c23.20793,6.85161,27.53777,11.36366,18.18533,19.21794-3.98343,3.17514-5.0226,3.17514-5.0226-1.00268,0-2.67379-4.67625-6.51738-10.04521-8.35562-9.00609-2.84091-10.738-2.33958-15.41422,4.512-6.40818,9.3583-3.63707,14.53878,7.44731,14.53878,9.35244,0,10.0452,2.67381,3.29066,11.69787-4.67625,5.84894-5.0226,5.84894-7.10094.33422-3.29067-8.1885-16.7998-6.85162-23.20794,2.67381-2.94431,4.17782-5.369,8.35563-5.369,9.35831,0,.66844,6.06178,4.17781,13.50908,8.1885l13.50908,6.51738,3.63708-6.51738c4.32984-7.85428,10.39161-4.17781,12.12355,7.52006,1.38553,9.02407,2.94431,10.361,9.35244,7.85429,4.32984-1.67113,5.0226-4.84626,3.29067-16.20991-2.07835-12.70056-1.38553-14.873,5.0226-18.21525,6.06178-2.8409,9.35244-2.8409,16.45334,0,8.65968,3.84359,27.19141,6.85162,45.03033,6.85162,5.02266,0,9.00609,1.33691,9.00609,2.67381,0,1.67113,2.94431,3.50938,7.1009,4.512,6.75459,1.67113,6.75459,2.00535-2.07835,14.873-9.3525,13.369-9.00609,19.71928,1.38553,19.71928,8.48653,0,20.09041-13.03478,22.51516-25.234,2.77106-12.36631,8.14012-13.87034,8.14012-2.33957,0,7.18584.69282,7.85428,9.00609,4.512,19.91726-7.18584,40.7005,6.85163,36.02425,24.39844-2.77106,11.36365-13.50908,18.21524-28.23054,18.21524-19.57085,0-21.82235-3.50937-12.12355-17.881,10.04521-14.20455,11.08443-18.88371,2.94431-17.21258-3.98343.66844-6.40818,4.512-7.10089,11.69787-1.38553,11.36365-5.369,13.70322-8.65968,5.1805-2.07834-4.84626-2.94431-4.84626-9.6988,1.67112-20.78323,18.88371-43.29839-2.00534-25.45948-23.73,3.637-4.512,5.02266-8.35562,2.94432-8.35562s-4.32984,2.33957-5.369,4.84625c-2.94432,7.18584-7.44731,5.84894-8.65968-2.67381-1.03912-6.51737-1.73194-5.84893-8.65968,5.1805-4.32984,6.85162-7.1009,14.20456-6.06178,16.87837,2.42475,6.18316-1.38553,7.85428-10.39161,4.512l-7.79371-2.67381,10.0452-15.54146c10.04521-15.20725,9.6988-22.39306-1.03912-18.5495-2.94431,1.00269-5.71536,4.84625-5.71536,8.35563,0,9.69252-8.14012,5.18049-10.04521-5.84894-2.07835-10.361-8.65968-10.02675-7.79371.33422,2.4247,16.2099,1.73193,22.05884-2.77111,24.56553-7.4473,4.512-21.8224,3.17512-26.4986-2.00535-2.4247-2.67381-6.75454-4.84625-9.69885-4.84625-9.00609,0-52.13128-15.54146-53.51681-19.21793-.69276-2.00535,1.38553-3.50938,3.98343-3.50938,6.06178,0,37.583-44.45191,34.29231-47.96127-1.38552-1.00267-6.40818-.33422-11.43078,1.33691-7.101,2.33957-9.35245,5.84893-10.738,14.20456-2.07834,12.70055-11.08438,15.87568-12.81631,4.512-1.73194-11.69787,17.14615-29.5789,32.214-30.08025,2.94426-.33422,15.241,2.50669,28.05733,6.51739Zm241.95141,81.04956c2.07835,3.84359,2.77106,11.36365,1.73194,17.21259-2.42475,11.36365,4.32984,24.06419,10.738,20.0535,5.369-3.17513,5.02266-10.361-1.38552-19.71928-4.32984-6.18316-4.32984-8.68984-.69282-14.20456,5.02266-8.1885,26.15219-9.69253,26.15219-2.33956,0,6.85162-7.1009,10.02675-10.39162,4.84625-5.71536-8.68984-7.79371,1.00268-2.07834,10.361,7.4473,12.70055,7.1009,14.53878-1.03912,22.39306s-21.12964,8.35562-26.845,1.67112c-2.94431-3.50937-7.4473-4.512-13.85548-3.17513-21.476,4.512-31.17485-16.54412-16.107-35.42783C882.8493,259.86682,901.55419,258.86414,907.26955,269.22513Zm-225.498,20.72194c28.23058,5.84893,47.80144,12.36631,72.5681,24.39843,30.65528,14.53878,38.96856,20.72193,83.65248,61.66449,27.53782,25.234,60.79091,53.81023,74.64639,63.50274,13.50908,9.6925,24.59351,19.21793,24.59351,20.72193,0,1.67113-1.38552,6.51738-2.94431,11.02944-2.07834,4.17781-6.40818,33.08824-10.0452,64.17117-8.14012,65.50811-10.738,74.53217-33.25319,117.64717-9.3525,17.881-24.24711,50.63506-32.90679,73.02817-23.90069,61.66449-50.053,103.77685-77.24429,123.4961-43.99122,31.41718-37.23663,71.357,31.17484,188.83714,13.50908,22.72726,17.83892,32.754,15.06786,35.42787-5.71536,5.51469-48.14779,7.18581-83.65248,2.84093-46.41586-5.51469-43.99121-4.17781-46.41586-25.56819-3.98343-35.92918-2.4247-34.091-26.15224-31.75137-49.36017,5.18045-120.7159-11.02938-167.13181-37.6003-28.92335-16.54418-68.931-51.97194-92.48537-81.3838-9.00608-11.69787-17.49256-21.39037-18.53173-21.39037-1.03917-.33425-7.79371,28.242-14.72146,63.00142-7.10094,34.75937-14.20189,63.16849-15.76062,63.16849s-8.14012-10.02675-14.37505-22.39311c-19.91726-37.93455-37.92939-46.95856-89.71426-45.45461-16.45339.66849-30.65526.33424-31.52123-.66849-1.03917-1.00264,11.77717-56.484,28.23056-123.16191s30.65529-124.16454,31.17485-128.17528c.69276-4.17782-2.77111-9.69251-8.65968-14.873l-10.04521-8.1885-.3464-41.77812c0-23.0615-1.73194-53.476-2.94432-68.18187-2.94431-27.23931,1.03918-49.96662,9.00609-49.96662,11.08438.33425,13.50908,6.18319,14.375,36.26343.34641,16.54412,1.73193,48.96393,2.77111,72.35968l1.73193,42.11236,10.738,8.68987,10.39161,8.35562-7.10095,30.41449c-3.63707,16.54413-16.107,66.51074-27.19141,111.29692-11.08438,44.45187-21.12964,85.5616-22.16876,91.07629L254.503,912.94243l23.55431,2.00537c32.56038,2.67376,50.05294,8.18855,63.90843,20.722,6.40818,5.84893,12.12355,10.361,12.47,10.02674.34641-.66849,5.71536-25.90243,11.77714-56.14974,6.06178-30.41449,12.12355-57.15249,13.50908-59.65918,2.77111-4.84625,3.29067-3.84356,40.00773,43.44925,33.25319,43.115,64.60119,71.69129,100.10587,91.74478,43.64481,24.8998,103.91615,36.59767,158.99175,31.08288,20.43682-2.00537,31.52125-2.00537,33.25319.33425,1.73193,1.67112,3.637,13.87031,5.02265,27.23931s2.94431,24.8998,3.637,25.56818c2.94431,2.84094,33.59959,6.85157,54.72913,6.85157l20.78323.33425-23.55429-43.115c-36.37065-66.845-47.80139-105.44792-40.00767-136.5309,3.29072-14.20456,7.79371-20.0535,33.25319-44.11768,16.107-15.54144,33.59959-35.59494,39.66137-46.12306,12.81637-22.05886,12.81637-22.05886,3.98343-22.05886-3.637,0-6.75459-1.33688-6.75459-2.67381s-4.32984-5.1805-10.04521-8.1885c-10.04521-5.84894-10.738-15.20725-1.03912-15.20725,7.79371,0,24.59351,12.70056,24.59351,18.88369.34641,4.84625.69282,4.84625,3.637-.66844,4.67624-7.18581,26.49859-60.996,26.49859-64.17118,0-1.67112-2.07834-2.67381-4.32984-2.67381-7.79371,0-12.47-6.85162-8.65968-13.70324,3.29072-6.18318,3.637-6.18318-14.375-7.18581-8.48653-.66844-9.3525.33424-9.3525,9.6925,0,8.1885,2.42475,12.36631,10.04521,17.54681,9.6988,6.85162,13.85549,19.385,6.40818,19.385-2.42475,0-2.771,3.50938-1.38552,10.02675,1.73193,7.18582,1.03911,11.02944-2.07835,13.03475-7.10089,4.17782-9.00609,3.50938-11.43073-3.17512-1.03912-3.17513-6.40819-7.85431-11.77715-10.02675-13.85548-5.51469-22.51516-15.20724-17.49251-20.0535,2.94432-2.84093,7.44731-2.00537,17.83892,3.50938,15.76058,8.68986,22.51517,6.18318,9.00609-3.50938-5.369-3.50937-10.738-11.69787-12.81637-19.21793-2.07834-7.18582-5.02265-12.03212-7.10089-10.69519-1.73194,1.00269-5.369.33425-7.79371-1.67112-3.29072-2.84093-7.79372,9.35831-20.43683,58.99068-8.65968,34.09093-19.57085,70.35436-23.55428,80.38111-5.71537,13.369-8.14012,28.57624-9.6988,59.65917-2.42475,35.42786-3.637,42.4466-8.65968,46.123-4.32984,2.84093-7.1009,10.02675-8.48653,23.0615-3.637,33.75674-5.71537,42.78075-8.65968,42.78075-1.73193,0-7.4473-6.51743-12.47-14.53881-5.0226-7.8543-10.738-14.5388-12.81631-14.5388s-7.101,3.50932-11.43079,8.18855c-11.08438,11.36363-16.107,10.02675-22.16876-4.8463-2.94431-7.18582-6.40818-13.03475-7.79371-13.03475s-7.4473,4.17781-13.85549,9.6925c-6.40818,5.18044-13.50907,9.35826-15.41421,9.6925-2.07835,0-6.40819-9.6925-9.69886-22.05887-3.29066-12.03211-7.10094-23.0615-8.48647-24.39837-1.38553-1.67113-11.08438,1.67112-21.8224,7.18581-10.39162,5.51469-20.43683,9.35826-21.476,8.35562-1.38553-.66849-4.67625-11.69787-7.10095-24.56555l-4.67624-23.0615-13.50908,2.33962c-27.53777,4.8463-27.19142,4.8463-28.23054-13.70325l-1.03917-17.21256-13.16272-2.00537c-19.57086-3.17513-17.83892.66849-38.96856-77.54018-4.67625-17.88105-10.04521-34.09093-11.77714-35.92918-1.73194-2.00537-9.35245-4.51205-17.14616-5.84893-20.78323-3.17513-49.36017-17.54681-65.294-32.75406-16.45339-16.20993-45.37674-56.81823-42.952-60.6618,1.03917-1.33688,9.00609-2.67381,18.18533-2.67381h16.45339l9.35244-27.57356,9.00609-27.9078,25.28627-12.03212c13.85549-6.51737,32.214-18.54949,41.39326-26.23668,30.30888-25.90243,37.23662-50.9693,28.23053-97.92791-7.4473-37.93453-7.10094-64.83965,1.03918-80.38111,9.00608-16.87837,26.49859-30.74868,49.70658-39.60565,26.4986-10.02675,75.33921-10.02675,113.615-.33422,41.0469,10.69519,96.12244,38.603,127.6437,64.83964,25.80588,21.3904,27.88412,22.39306,48.66735,24.39843,47.80139,4.84625,78.97624,22.39309,95.42963,53.81021,10.39161,19.38506,10.738,22.72731,5.71536,55.81556-5.71536,37.26606-5.36895,37.26606-29.26975,32.75405-36.89022-7.18581-54.03642-3.50937-77.59071,17.21256-31.86766,27.57356-57.8467,90.40786-76.55159,185.49484-3.29072,16.54413-7.79371,30.08025-9.69885,30.08025s-24.59351-6.85162-49.70658-15.20725c-36.02424-12.03211-46.41586-16.87837-46.41586-21.05618,0-8.35562,8.14012-7.52006,46.76227,5.51469,18.53173,6.18318,35.33148,11.36363,36.89021,11.36363s5.02261-8.35562,7.10095-18.88369c8.14012-38.26874,26.845-100.60172,38.62215-128.17523,1.73193-3.50937-7.1009,1.00269-20.43682,11.02943-34.63872,25.234-54.38278,33.08825-87.11636,34.09094-14.72145.33424-31.17484,2.33956-36.37065,4.17781-12.12355,4.51206-42.60563,4.51206-55.07554,0-23.55434-8.35563-38.27579-32.75406-40.70049-66.845-1.38553-22.7273-1.38553-23.0615,8.14012-27.9078,19.22449-9.35831,57.15388-18.88369,83.65248-20.72194,34.63872-2.33956,54.72918,2.84093,92.139,24.89975,15.76062,8.68987,28.92335,15.54144,29.61606,14.873,2.94431-2.67381-37.583-28.242-55.76836-34.75937-23.20793-8.68987-71.87534-11.69788-111.53666-6.51738-32.214,4.17781-37.92938,2.00537-29.96247-12.03212,4.32984-7.52006,8.65968-9.35831,28.577-13.03475,36.02424-6.18318,94.04409-6.18318,114.65412,0,31.00164,9.35831,70.663,33.08825,90.06066,53.81024l6.06178,6.85162,14.72145-17.54681c24.59352-29.24468,55.42195-38.93719,103.56975-33.08825,5.369.66844,7.10089-2.67381,10.738-21.39038,3.637-18.54949,3.637-24.06418-.69281-35.42786-12.12356-33.75674-40.7005-51.30355-86.76995-53.81023l-27.19141-1.67113-23.9007-21.3904c-53.17045-47.627-134.05182-78.20864-196.22831-73.86371-30.65529,2.00535-48.1478,8.35563-64.9476,24.39843-19.2245,18.21525-20.78323,29.24469-12.47,80.38111,8.48648,49.96662,6.40819,68.18187-10.0452,93.08167-10.738,16.54412-42.086,40.60831-69.62385,53.476l-17.83892,8.35562-10.39161,30.08024c-9.69885,28.91044-10.738,30.08025-20.09047,30.08025-8.65968,0-9.35244.66844-6.75454,5.84893,1.73194,3.17513,10.39162,13.70325,18.87809,22.72731,17.83892,19.21793,48.321,35.42786,72.91451,38.26875,10.04521,1.33687,17.49257,4.17781,19.57086,7.52006,1.73194,3.17512,9.00609,28.242,16.7998,55.48136,7.4473,27.57355,15.41422,50.9693,17.49256,52.13911s10.39162,3.17512,18.53174,4.512l14.375,2.00537v14.53876c0,15.54144,1.38553,16.20993,20.09047,11.02938,14.2019-3.84357,18.53173,0,21.476,20.38774,3.63708,22.39311,5.369,23.39575,25.45948,13.70324s25.28628-9.02411,28.23054,3.84357c1.38552,4.8463,3.98343,14.53881,5.71536,21.39038l3.29067,12.36636,13.50908-11.69787c11.08438-9.35826,14.375-11.02939,18.53173-7.85431,2.77111,2.00537,4.67625,4.8463,4.67625,6.51743,0,1.33688,1.73194,6.51742,3.29067,11.02938l3.29067,8.68987,10.39161-8.35563c12.81632-10.361,17.49257-10.69523,24.24711-1.33688,5.369,7.52007,5.369,7.18582,5.369-5.84893.34641-8.68987,2.94431-16.54418,8.14006-22.72726,6.40819-8.18855,7.79372-14.5388,9.3525-48.29554,1.73194-30.08024,3.637-42.11236,9.3525-53.476,7.10089-14.873,42.43243-145.22072,39.66137-147.89453-2.42475-2.67381-25.28622,68.18186-37.583,117.48-6.75459,26.57087-13.16267,49.29818-14.375,50.63506-2.42475,2.33956-39.66132-11.02944-106.514-37.60031l-26.845-10.69519L574.565,767.05311c-.69276-10.361,0-13.70324,3.29067-12.70056,2.4247,1.00269,4.67624,5.84894,5.369,11.02944,1.03917,9.02406,3.29067,10.361,54.38277,29.91312,29.61612,11.36363,56.11472,21.39037,59.57859,22.05887,5.369,1.33687,7.101-2.33957,12.4699-23.73,10.738-45.45461,31.86767-113.13516,45.37675-144.7194,30.30887-72.02549,60.09819-94.75279,105.47493-80.38111,10.738,3.50937,12.47,5.1805,12.47,14.20456,0,19.71925-4.67625,21.05618-39.315,13.03475-4.67625-1.00268-7.79371-.33424-7.79371,2.00537,0,2.00537,3.637,3.50937,8.48652,3.50937s13.85549,2.33957,20.09042,4.51206c11.08443,4.51206,11.77714,5.84894,11.77714,19.38506v14.5388l-25.80589-.66844c-24.2471-.66844-27.53782.33425-41.0469,9.02407l-15.06786,9.6925,11.77714,1.67112c8.65968,1.33688,12.12355.33425,13.85549-3.84356,4.67625-11.36363,38.62215-6.51738,41.73961,6.18318,2.07835,7.18581,4.32984,4.17781,18.53174-21.05618,19.91726-35.59494,24.93992-53.476,31.52125-112.46672,2.77106-24.89975,5.71537-49.96662,7.1009-55.48136,1.73193-8.68987.69281-10.69519-11.08444-18.21525-7.10089-4.51206-38.27574-30.74869-69.27743-58.65649-72.56816-65.17386-93.52454-75.86905-184.45117-93.08164-18.18533-3.50937-19.57086-4.17781-19.57086-12.70056,0-11.02943,2.4247-13.70321,11.43079-11.69787,4.32973,2.50676,24.76661,7.0188,45.8962,11.53083ZM572.31322,814.01178c9.00609,1.67112,28.92335,2.84093,43.99116,2.84093h27.53777l6.40818,11.36363c3.29067,6.18318,8.14012,11.36362,10.738,11.36362,9.35244,0,24.2471,10.361,26.15224,18.21525,1.38553,4.51206.34641,12.03212-1.73194,16.20993-2.94431,6.85157-4.67624,7.52006-10.39161,4.51206-3.29067-2.00537-7.79371-2.84093-9.00609-2.67376-1.38553.33425-13.16272-.66849-25.80583-2.33961-19.91727-2.00537-26.4986-4.84631-48.66741-19.21794-16.45339-10.69519-25.45948-18.54949-25.28628-22.05886.34641-3.84357-2.7711-6.18319-10.738-7.85431-14.20189-2.67381-21.476-10.02675-14.375-14.53881a12.47818,12.47818,0,0,1,9.69886-1.00268c2.59785,1.33693,12.2967,3.67654,21.476,5.18055Zm20.78323,50.30086,36.71706,27.57356,16.45339-2.00537c9.00609-1.00264,18.18533-2.33962,20.09047-2.67376,2.07834-.33425,3.63708,2.33961,3.63708,5.84893,0,5.18045-3.98344,7.18582-20.78324,11.02939l-20.43682,4.51205L588.76666,878.5172c-21.8224-16.54418-40.35408-30.74868-41.0469-31.08293-2.07834-1.67112,2.77111-11.02943,5.71537-11.02943,1.73188,0,19.39765,12.36631,39.66132,27.9078ZM296.2426,968.08944c6.75454,2.00537,6.75454,2.84093,1.03917,28.91044-5.369,24.8998-13.50908,26.90506-14.20189,3.50932-.69277-16.54418-6.75454-24.56555-17.83892-24.56555-9.35245,0-27.19139,12.7005-31.00165,21.39037-4.32983,11.69787-1.38555,20.0535,13.85549,35.42786,30.65529,31.08288,36.37066,48.62969,23.55434,73.02817-8.48647,16.20993-26.49862,27.90781-49.70655,32.754-22.86155,4.51205-36.89024,2.00537-50.05294-9.35826-14.20187-12.03212-16.79977-21.05613-7.79371-29.91317,8.65968-8.35563,18.87809-4.17782,21.8224,9.6925,5.0226,22.05887,31.52123,24.8998,53.86322,5.84894,9.00606-7.52007,11.77717-12.36637,11.77717-21.05613,0-14.20456-3.98346-21.72463-23.90072-41.77812-17.83895-18.54944-21.82241-27.9078-18.53171-45.45461,2.94428-13.87032,24.2471-35.42787,39.66132-39.93992,10.56477-3.00791,33.7727-2.33941,47.455,1.50415Zm136.47658,91.74479c6.06177,3.50932,1.73193,10.02675-6.40819,10.02675-6.40818,0-10.39161,9.6925-18.87809,42.78075-2.94431,12.36636-7.4473,11.36362-13.50908-3.17518-2.7711-6.51743-6.06177-14.87305-7.79371-18.54944-2.4247-5.18045-3.63707-3.17518-8.48647,12.03211-5.369,17.88106-13.85549,25.56819-23.9007,22.05887-1.73193-.33425-9.35244-2.00537-16.7998-2.84093-11.43078-2.00537-13.50907-3.17518-12.81631-9.35826.69276-5.51469-.69276-7.18582-7.4473-7.18582-4.67625,0-8.48648,1.33688-8.48648,2.84094,0,1.67112-4.32984,7.52006-9.69885,13.03475-10.39162,10.69524-23.90069,13.70324-23.90069,5.18044,0-2.67375,2.7711-4.8463,6.40818-4.8463,6.06177,0,46.0695-47.9613,42.60563-51.30355-3.63707-3.17517-12.12355,2.84094-12.12355,9.02412,0,6.85157-4.67625,8.68987-8.48647,3.17518-6.40819-10.02675,9.35244-22.72726,29.2697-22.72726h10.04521l-2.07835,18.54944c-1.38552,10.361-2.94431,22.72726-3.98343,27.23932-1.73193,8.18855-.69276,8.68986,12.12355,10.02674,16.107,1.33688,17.14616.33425,24.59352-27.57355,3.98343-14.53881,3.98343-18.54945.69276-18.54945-6.06178,0-12.47,8.35563-11.08438,15.2072.69276,3.50932-1.03917,5.84893-3.98343,5.84893-7.4473,0-8.14012-12.36636-1.03917-20.38774,3.98343-4.8463,10.39161-7.52006,19.2245-8.18855,12.81631-.66849,13.16272-.33424,17.83891,14.53881,5.369,18.54944,9.35245,19.71925,12.47,3.84356,2.4247-10.69524,12.12355-24.06423,18.18533-24.06423a39.27971,39.27971,0,0,1,7.4472,3.34235Zm77.5907,47.12573c0,2.67376-4.32984,5.51469-10.0452,6.85157a91.52607,91.52607,0,0,0-10.04521,2.84094c0,.16717-5.369,20.38774-11.77714,44.45187s-11.77715,45.45461-11.77715,47.29281c0,2.33962,2.94432,4.17781,6.75454,4.17781s6.75454,2.33962,6.75454,4.8463c0,3.84357-5.0226,4.84631-26.4986,4.84631-29.96246,0-36.71706-3.84357-19.22449-11.02939,12.81631-5.18044,11.43078-2.67375,25.45947-57.15248,3.98344-15.20719,7.79372-30.08024,8.65968-33.42249,1.38553-3.84357,0-5.51469-5.0226-5.51469-3.98343,0-7.101-2.33962-7.101-4.51206,0-3.50932,4.67625-5.18045,16.107-6.18318,34.81186-2.33962,37.75612-2.00537,37.75612,2.50668Zm152.75677,42.78075c8.65968,3.17518,6.40818,11.02939-2.94431,11.02939-9.69885,0-12.81632,5.84893-20.78323,39.60567-2.77111,12.36637-6.40819,22.05887-8.48648,22.05887-2.77111,0-8.48647-11.36363-19.2245-37.26606-2.4247-5.18045-3.63707-2.84093-8.48647,12.03212-2.94432,10.02674-7.79371,20.722-10.738,23.39574-6.06177,5.84894-23.55434,6.85157-26.845,1.67113s5.71536-9.35826,12.81631-5.84894,11.43079-3.17518,18.18533-27.9078c6.75454-24.06424,6.40818-27.90781-2.77111-24.56556-6.06177,2.33962-7.79371,5.18045-7.79371,13.70325,0,13.70324-9.35244,15.54144-11.08438,2.67376s11.43079-25.234,27.53777-26.23668l13.16272-1.00264,6.06178,18.88369c3.29067,10.69524,6.75454,19.71925,7.4473,20.722,1.03917.66849,3.98343-6.51743,7.101-16.54418,3.29067-10.361,8.48648-19.71925,12.81631-23.0615C657.52443,1147.067,656.31211,1147.067,663.06665,1149.74071Zm-98.20079,5.18045c3.98343,2.84093,5.02261,7.18582,3.63708,13.03475-2.07834,11.02938-6.75454,12.03212-8.48648,1.67113-.69276-5.18045-3.63707-7.52006-11.08437-8.18855-13.16273-1.33688-27.88418,13.03475-31.00165,29.57892-2.4247,13.87032,2.94432,21.72462,14.72146,21.72462,8.48647,0,15.06786-10.02674,8.48647-12.36636-8.14012-2.67376-3.63707-7.18582,7.101-7.18582,12.81632,0,17.14616,2.67376,12.81632,7.85431-1.38553,2.00537-5.369,11.02938-8.48648,20.0535-8.65968,25.90243-24.93986,35.59493-39.315,24.39838-7.44731-5.84894-7.44731-6.51743-2.07835-8.35563,2.94431-1.33688,8.14012-.33424,11.08438,2.00537,4.67625,3.50932,6.06178,3.17518,10.04521-2.00537,7.4473-9.6925,5.71536-14.5388-5.369-14.5388-14.72146,0-23.55434-10.02675-23.55434-27.23931.34646-29.41166,40.70054-55.64833,61.48377-40.44114Zm149.4661,3.17518c-1.03912,4.17781-2.94431,18.88369-3.98343,32.41986-2.42475,23.0615-2.07834,25.23394,3.637,25.23394,4.32984,0,5.02266,1.00263,2.42476,3.50932-2.07835,2.00537-7.79372,2.84093-13.16267,2.33962-8.48648-1.00264-9.69886-2.33962-9.00609-10.02675,1.03917-14.20456-11.77715-11.69788-27.19142,6.18318-9.69885,11.02938-14.72145,14.20456-20.78323,13.70324-9.69885-1.33688-11.08438-6.85157-2.4247-8.68987,3.29067-.66849,8.14012-2.67376,10.39162-4.51205,6.75454-5.18045,42.086-54.47863,40.35408-56.14975-3.63707-3.17518-12.81631,2.84093-12.81631,8.35562,0,7.52006-6.06178,11.69787-10.738,7.18582-10.0452-9.69251,9.69886-26.23668,32.214-26.57093,11.77714,0,12.81637.66849,11.08443,7.01875Zm66.33312-5.18045c7.44731,2.67376,7.44731,24.06424.34641,24.06424-2.94431,0-5.02265-2.84093-5.02265-8.18855,0-6.51743-1.73194-8.18856-8.14012-8.18856-19.57086,0-36.02425,36.26343-25.45948,55.48136,4.32984,7.52007,12.81637,7.85431,22.86157,1.00264,11.43074-7.85431,13.85549-2.00537,2.94432,7.18581-12.12356,9.69251-22.86158,9.69251-34.98513,0C704.63306,1200.37577,744.98725,1139.714,780.66508,1152.91589Zm107.55318,6.18308c6.40818,5.51469,8.65968,11.02938,8.65968,19.385,0,33.08825-34.63872,55.14711-58.53941,36.93181-16.45339-12.7005-9.6988-45.12036,12.47-57.988,14.5483-8.68967,26.67185-8.02128,37.40977,1.67122Z"/>
          <path class="cls-1" d="M639.85872,547.13315c26.15224,7.8543,43.2984,16.54412,65.294,33.08824,20.09042,15.54144,21.82235,25.56819,6.40819,36.59762l-9.00609,6.51738-24.59351-16.20993c-48.1478-32.08561-72.22175-38.26874-116.03971-29.91312-22.51516,4.17781-22.51516,4.51206-9.35244,6.18318,12.81632,1.67113,13.50908,2.33956,14.375,14.53881.69276,9.3583,3.98343,15.87568,11.77714,23.39574,8.65968,9.02406,12.81632,10.69519,26.4986,10.69519,11.77714,0,16.7998,1.33688,18.53173,5.1805,3.29067,8.35562-3.63707,11.02943-24.59351,9.02406-18.87809-2.00537-20.43682-2.84093-33.25319-17.88106-7.4473-9.02406-13.16272-18.88368-12.81631-22.39306.69276-4.512-1.03917-6.51737-5.369-6.51737-7.44731,0-15.06787-8.1885-12.12356-13.03475,2.77111-3.84357-1.73193-4.17782-8.48647,0-6.75454,3.84356,0,15.20724,22.86157,39.60567,36.02425,37.26606,75.33922,46.123,118.2912,26.57087,23.20793-10.69518,67.19909-44.11768,67.19909-51.63774,0-6.51738-40.35408-36.26343-64.25483-46.95861-11.77714-5.1805-28.23053-10.361-36.71706-11.36363C620.28781,541.28421,620.63422,541.61845,639.85872,547.13315Z"/>
          <path class="cls-1" d="M817.5553,578.21607c-13.16267,5.5147-34.29231,32.41981-46.41586,58.32225-10.04521,21.72462-10.39162,23.73-3.98343,17.21256,2.771-2.33956,12.81636-9.35831,22.16875-15.20725,13.85549-8.35562,22.51517-11.36362,40.00768-13.03475,21.476-2.00537,21.82235-2.33956,12.12355-6.18318-7.10089-2.84093-12.12355-2.84093-17.83892-.66844-9.00608,4.17781-10.738,1.67113-11.77714-19.38506l-.69282-14.20455,26.15219.33424c17.49251.33425,25.80589-.66844,24.93992-3.17513-2.5979-8.1885-29.0965-10.36094-44.68392-4.01069Z"/>
          <path class="cls-1" d="M501.6502,615.31506c2.77111,37.26606,23.20793,57.15249,57.84665,55.14712l18.87809-1.00269L560.536,658.09586c-16.107-10.02674-23.55433-17.881-52.824-53.81023l-7.79371-9.35831,1.73193,20.38774Z"/>
          <path class="cls-1" d="M849.59611,1171.13109c-5.02266,8.18855-6.06177,13.87031-4.67625,23.39575,2.77106,16.87831,3.637,18.2153,15.06787,18.2153,17.49251,0,29.61606-27.90781,18.87814-43.78349-8.14012-11.69787-20.61008-10.86231-29.26976,2.17244Z"/>
        </g>
        <path class="cls-2" d="M830.19841,1156.59228c0,1.33688-2.2515,3.008-5.19581,3.6765a28.7333,28.7333,0,0,0-5.19581,1.50405c0,.16707-2.771,11.02938-6.06177,23.89706s-6.06178,24.56556-6.06178,25.56819c0,1.16981,1.55879,2.33962,3.46387,2.33962s3.46388,1.16981,3.46388,2.67376c0,2.17244-2.59791,2.67375-13.68234,2.67375-15.41427,0-18.87814-2.17244-9.87206-6.016,6.58134-2.84094,5.88863-1.33688,13.16267-30.74874,2.07835-8.18855,3.98344-16.20993,4.503-18.04812.69281-2.17245,0-3.008-2.59791-3.008-2.07834,0-3.637-1.16981-3.637-2.50669,0-2.00537,2.42475-2.84093,8.31327-3.34224,17.83913-1.16981,19.39781-1.00264,19.39781,1.33687Z"/>
        <path class="cls-1" d="M687.487,1189.84771c-3.11747-3.84357,5.88857-17.71388,10.56481-16.71125,4.503,1.00263,6.06183,16.71125,1.90514,18.71662a5.078,5.078,0,0,1-2.07834.16707C692.16315,1191.6859,688.69928,1191.35176,687.487,1189.84771Z"/>
        <path class="cls-1" d="M318.58461,1095.76341c-2.5979-3.84357,4.8494-17.71388,8.65968-16.71125,3.63708,1.00263,5.02261,16.71125,1.55873,18.71662-.3464.16707-.51956.16707-1.73193.16707C322.568,1097.6016,319.62373,1097.43453,318.58461,1095.76341Z"/>
        <path class="cls-2" d="M868.99381,266.71845c-.17315.83556-1.55878,1.67112-3.11746,2.00534a14.23361,14.23361,0,0,0-2.94431.66844c0,.1671-2.42475,6.6845-5.19581,14.53878s-5.19581,14.873-5.369,15.54146c-.17315.83557.69282,1.504,1.73194,1.67113s1.90509,1.00268,1.73193,1.83825c-.17315,1.3369-1.55878,1.504-7.79371.83556-8.48653-1.00269-10.21846-2.50669-5.02265-4.34494,3.81028-1.3369,3.29072-.50134,9.69879-18.38237,1.73194-5.01337,3.46388-9.85962,3.98344-11.02943.51956-1.33691.17315-1.83825-1.21238-2.00535a1.99628,1.99628,0,0,1-1.90509-1.83824c.17315-1.16979,1.55879-1.67113,4.8494-1.504,10.04531.33424,10.91128.50134,10.56487,2.00537Z"/>
        <path class="cls-1" d="M891.68213,274.73982c-5.02265-.66844-9.00609,4.512-10.56476,7.85428-1.90509,4.67916-1.38553,11.36366,2.25149,13.369,4.67625,2.67381,14.72146-2.33956,15.76058-9.69253C899.82225,281.59144,896.70479,275.40829,891.68213,274.73982Z"/>
        <path class="cls-1" d="M820.1532,266.05c-3.46387.66844-1.55878,9.02406-8.65968,19.88637-.866,1.33691-1.73193,2.50669-1.38553,3.34225,1.38553,2.50669,16.28024,2.84091,19.91727-6.01606C833.48913,275.07407,823.96348,265.38154,820.1532,266.05Z"/>
        <path class="cls-1" d="M504.24811,181.65818c-3.46387.66846-1.55873,9.02408-8.65968,19.88639-.866,1.3369-1.73194,2.50669-1.38553,3.34225,1.38553,2.50669,16.28019,2.84091,19.91726-6.01605C517.584,190.51515,508.23159,180.82262,504.24811,181.65818Z"/>
        <path class="cls-1" d="M429.25531,159.098c-5.02261-.66845-9.00609,4.512-10.56482,7.85428-1.90514,4.67916-1.38553,11.36365,2.25149,13.369,4.67625,2.6738,14.72146-2.33958,15.76063-9.69253C437.39537,165.94962,434.27791,159.76645,429.25531,159.098Z"/>
        <path class="cls-1" d="M386.30326,145.89613c-2.25149.33422-1.03917,5.34759-5.71536,11.53076-.69277.83556-1.21238,1.504-.866,2.00534.866,1.504,10.738,1.67113,13.16272-3.50936C394.96294,151.07661,388.90117,145.39478,386.30326,145.89613Z"/>
      </g>
    </g>
  </g>
</svg>
