<svg preserveAspectRatio="xMidYMid meet" data-bbox="141.177 99.098 328.094 439.695" viewBox="141.177 99.098 328.094 439.695" height="853.333" width="853.333" xmlns="http://www.w3.org/2000/svg" data-type="shape" role="presentation" aria-hidden="true" aria-label="">

<style>* {fill:#035bad;}</style>
    <g>
        <path d="M201.5 100.5c-21.2 4.7-40.6 17.9-54.8 37.4l-4.6 6.4-.1 131.1c0 72.1-.3 136.4-.6 142.8-.5 10.7-.3 12.3 2.1 19.4 20.2 60 92.8 104.5 164.9 101 38.7-1.9 73.1-15.7 104.1-42 16.4-13.8 33.9-34.9 46-55.2l6.2-10.5.7-40.2c.4-22.1 1.3-80 2.1-128.7 2.1-124.4 2.1-126 1.2-126-.5 0-5.5 1-11 2.2-8.9 2-13.2 2.2-33.7 2.3-20.2 0-25.3-.4-36.5-2.3-16.1-2.9-41.8-9.5-63.5-16.2-9.1-2.8-22.1-6.9-29-9-33.2-10.4-52.7-14-73.3-13.9-7.8.1-16.9.7-20.2 1.4zm44.5 7.6c17.3 2.4 30 5.8 75 19.9 52.7 16.6 73.4 21 98.5 21 14 0 29.5-2.3 37.3-5.6 2-.8 3.9-1.1 4.4-.6.7.7-2.9 273.4-3.8 277.8-.5 2.7-12.1 21.9-18.7 30.9-18.7 25.7-42.2 46.2-67.4 58.8-44.1 22.2-96.4 22.3-142.9.3-35.8-17-63.3-45-76.7-78.1l-3.2-8 .4-139c.3-121.6.5-139.4 1.8-142.3 2.4-5 15.2-17.5 23.7-23.1 18.9-12.3 41.7-16.1 71.6-12z"></path>
        <path d="M209.5 114c-19.7 3.1-36 12.2-48.8 27.2l-4.6 5.4-.7 137-.6 136.9 3.1 8.4c9.9 26.8 31 51 58.8 67.7 25.1 15 48.7 22 77.4 23.1 28.9 1.1 48.9-3.2 74.4-15.8 16.2-8 28.7-17.1 43-31.4 13.5-13.5 23.5-26.2 32.9-42.2l6.5-10.8 1.5-101c.9-55.6 1.9-115.9 2.2-134.1l.7-33.1-8.4 1.9c-12.2 2.8-33.4 3.4-48.4 1.4-22.4-3-39.4-7.4-90.5-23.6-24.7-7.8-44.6-13.1-58.5-15.5-11.1-2-32-2.7-40-1.5zm-6.9 14.5c3.5 1.4 3.6 1.6 2.9 5.7-.8 4.9-1.2 5.8-2.6 5.8-.5 0-.9-1.5-.9-3.4 0-9.5-11.2-6.8-16.1 3.9-2.6 5.7-2.6 15.4.1 18.3 2.8 3 7.4 2.9 10.2-.3 2.4-2.7 4.8-3.3 4.8-1.1 0 2.2-5.7 6.5-9.7 7.2-4.7.9-10.2-1.9-12.2-6.1-2-4.2-1.6-11.5 1-17.4 2.4-5.7 8.4-11.7 12.6-12.7 1.6-.3 3.3-.7 3.8-.9 1.8-.6 2.5-.5 6.1 1zm15.4 9.9c0 .8-1 1.6-2.2 1.8-2.9.4-3.6 2.8-.8 2.8 1.3 0 2 .5 1.8 1.2-.3.7-1.1 1.3-1.9 1.3-.8 0-1.5 1-1.7 2.2-.3 1.7.2 2.3 1.7 2.3 1.1 0 2.5-.8 3.1-1.8 1-1.6 1-1.6 2 0 .6 1 1.8 1.8 2.6 1.8 1.7 0 4.7-6.4 4.1-8.8-.3-1.3-.7-1-1.5 1.1-.7 1.6-1.6 2.5-2.2 2.2-2.7-1.7 1-6.5 5-6.5 2.4 0 2.9.5 3.5 3.7l.7 3.8 1.9-3.8c2.2-4.2 2.1-4.1 10.7-2.3 3.9.8 6.5.9 6.9.3.3-.5.9-.4 1.3.4.5.7 1.8 1.4 3 1.6 3.3.5 6 2.2 6 3.8 0 .7-1.2 2.2-2.6 3.3-2.5 1.8-2.6 2.1-1.5 5.5 1.5 4.6 3.9 4 3.3-.8-.8-7 8.7-11.6 12.4-6 1 1.6 1.4 3.4 1 5-.8 3-6.3 6.8-9 6.1-1-.3-2.7.1-3.7.7-2.6 1.6-5.1-.1-6.4-4.1-.9-3.3-2.5-4.3-2.5-1.7 0 .8-.9 1.5-1.9 1.5-2.3 0-3.6-1.6-2.1-2.5.6-.4.5-1.3-.2-2.5-.9-1.4-.9-2.5 0-4.4.9-2.1.9-2.6-.1-2.6-1.8 0-4.9 6.8-4.2 9.1.6 1.9.5 1.9-3.9.5-1.7-.6-1.7-.8-.4-2.4 2.5-2.8 4.9-8 3.9-8.6-1.6-1-4.1.6-4.1 2.6 0 1.1-.5 1.8-1.2 1.5-.7-.2-1.2-1.7-1.1-3.3.2-2.7.1-2.6-1.7 1.1-1.1 2.2-2 4.8-2 5.7 0 3.3-2.1 2.9-3.6-.9l-1.6-3.8-1.5 3.8c-1.4 3.5-1.7 3.7-5.7 3.5-2.2-.1-5.9.1-8.2.5l-4.1.8.5-5.7c.3-4.2.2-5.5-.7-5-.6.4-1 1.7-.9 2.9.2 1.2-.1 2.4-.7 2.7-.5.3-1.1-.9-1.3-2.6-.2-2.5.3-3.6 2.5-5.2 1.6-1.1 3.9-2.2 5.3-2.5 1.4-.2 2.8-.5 3.3-.6.4 0 .7.5.7 1.3zm78 15.4c2.2 2.2 3.5 2.8 5.8 2.4 3.9-.5 10.2 1.5 10.2 3.4 0 1.7-1.2 1.8-2.7.3-1.3-1.3-4.3-.5-4.3 1.1 0 .5.7 1 1.5 1s1.5.7 1.5 1.6c0 1.1-.6 1.4-2 .9-1.2-.4-2.8-.1-3.6.6-1.3 1.1-1.2 1.4.8 2.5 1.5.8 2.5.9 2.9.2.4-.6 1.2-.7 1.8-.3.9.5.9 1 0 2.1-1.5 1.8-1.9 1.8-7.2-.5l-4.6-2 3.5-3.6c3.4-3.7 4.2-5.5 2.4-5.5-.6 0-1.5 1.1-2 2.5-.6 1.5-1.7 2.5-2.9 2.5-1.1 0-2.3.5-2.7 1.1-.8 1.3-9.1.6-10.5-.8-.6-.6.1-2.2 2.1-4.3 3.5-3.8 4.1-6.7 1-5-1.2.6-2 2.1-2 3.5 0 1.6-.6 2.5-1.5 2.5-3.2 0-.9-6.5 2.8-8 4-1.6 6.8-1 9.7 1.8zm43.1 3.3c6.9 2.1 8.2 3.5 5.4 5.9-1.2 1-1.5 1-1.5-.3 0-.8-1.4-2-3-2.6-2.7-.9-3.2-.7-4.6 1.4-1.9 2.9-1.1 4.5 2.2 4.5 2.8 0 3 .8 1 3.6-1.4 1.8-1.5 1.8-2.1.1-1-2.5-5-2.1-6.9.8-.9 1.3-1.6 2.6-1.6 2.9 0 .2 1.8 1.3 4 2.5l4 2 1.1-2c1.3-2.4 3.1-1.3 3.6 2.3.4 2.8.9 3.2 2.8 2.4 1.3-.5 1.5-1.5 1-5-.6-3.9-.4-4.6 1.5-5.6 1.8-.9 2.8-.9 4.9 0 2.6 1.2 8.1 2.1 13.4 2.1 1.5 0 2.7.4 2.7.8 0 .5.9 1.1 2.1 1.4 2 .5 2 .6-.6 4.6-2.8 4.1-2.7 6.1.4 6.1 2.5 0 6-4 6.7-7.8.8-3.8 2.4-4.3 2.4-.7 0 2.2.2 2.4 2.7 1.4 5.9-2.2 12.1 2.1 10.7 7.5-.8 3.5-4 5.6-8.4 5.6-5.8 0-6.5-1.1-3.6-5.5 3-4.4 3.3-5.8.9-5.3-1.2.2-1.9 1.4-2.1 3.6-.4 3.5-1.6 4.2-2.6 1.6-.6-1.5-.9-1.5-2.9.5-6.2 5.8-12.9-.6-7.6-7.3 1.1-1.4 1.5-2.6.9-2.6s-1.3.7-1.6 1.5c-.9 2.2-2.2 1.8-2.6-.8-.3-2-.5-1.8-2.6 1.6-1.3 2.1-2.1 4.4-1.8 5.2.7 1.9-.4 2.4-3.1 1.4l-2.3-.8 3-4.8c3-4.7 2.9-6.9-.3-5.7-.9.3-1.7 1.5-1.7 2.6 0 3-2.4 1.6-3-1.8-.6-3.2-2.6-3.1-2.3.1.7 5 .5 6.8-.8 7.6-2.2 1.4-6.5 1-7.9-.6-.7-.8-2-1.5-2.9-1.5-2.7 0-15.5-4.8-15.9-5.9-.2-.6.4-1.1 1.2-1.1 1.8 0 11.2-13.7 10.2-14.8-.4-.3-1.9-.1-3.4.4-2.1.7-2.8 1.8-3.2 4.4-.6 3.9-3.3 4.9-3.8 1.4-.5-3.6 5.1-9.1 9.6-9.3.8-.1 4.5.8 8.3 2zm72 25c.6 1.2.8 3.5.5 5.3-.7 3.5 1.3 7.4 3.2 6.2 1.6-1 1.5-3.2-.4-6.1-1.3-1.9-1.3-2.7-.2-4.4 1.5-2.5 7.8-3 7.8-.7 0 2.1-2.1 3.1-3.1 1.5-1.7-2.7-2.3.3-.6 3.2 2.2 3.9 2.1 4.5-.3 6.9-2.4 2.4-6.3 2.6-8 .5-.9-1.1-2.2-1.4-4.1-1-6.4 1.4-9.3-5.1-4.8-10.9 2.7-3.4 8.3-3.7 10-.5zm-67.1 6.4c8.4 1.8 14.2 3.8 21.6 7.5 9.1 4.5 11.6 6.4 24.9 19 8.2 7.8 18.1 16.6 22.2 19.6 4 3 7.3 5.9 7.3 6.4s-.4 2-.9 3.4c-.6 1.3-1.9 10.2-3 19.8-2.4 20.2-3.2 23-9.9 36.3-2.8 5.5-7.2 15.6-9.8 22.5-7.1 19-14.9 32-23 38.1-13.1 9.7-11.1 22 9.3 58.2 4 7 5.3 10.1 4.5 10.9-1.7 1.7-14.3 2.2-24.9.9-13.8-1.7-13.1-1.3-13.8-7.9-1.2-11.1-.7-10.5-7.8-9.8-14.7 1.6-35.9-3.4-49.7-11.6-8.6-5.1-20.5-16-27.5-25.1-2.7-3.6-5.2-6.6-5.5-6.6-.3-.1-2.3 8.7-4.4 19.4-2.1 10.7-4.2 19.5-4.7 19.5s-2.4-3.1-4.3-6.9c-5.9-11.7-11.3-14.5-26.7-14-4.9.2-9.1.1-9.4-.2-.3-.3 3.5-17.4 8.4-38s9.1-38.3 9.3-39.5c.2-1.3-.8-3-2.6-4.6l-3-2.5-.1-12.9c0-7.1-.5-16.5-.9-21-.9-8.4.3-15.4 2.7-15.4 3.3.1 4 1.9 4.3 11.2.1 5.1.5 15.1.8 22.3l.5 13 3.2 2.7 3.1 2.6-2.1 9.4c-1.1 5.1-4.8 20.5-8.1 34.3-3.3 13.7-6.3 26.4-6.6 28.1l-.6 3.1 7 .6c9.7.8 14.9 2.5 19 6.4 1.9 1.8 3.6 3.2 3.7 3.1.1-.2 1.7-8 3.5-17.3 1.8-9.4 3.6-17.6 4-18.4.8-1.5 1-1.2 11.9 13.4 9.9 13.3 19.2 22.1 29.8 28.3 13 7.7 30.9 11.3 47.3 9.6 6.1-.6 9.4-.6 9.9.1.5.5 1.1 4.3 1.5 8.4.4 4.1.9 7.7 1.1 7.9.9.9 10 2.1 16.3 2.1l6.2.1-7-13.3c-10.8-20.6-14.2-32.5-11.9-42.1 1-4.4 2.3-6.2 9.9-13.6 4.8-4.8 10-11 11.8-14.2 3.8-6.8 3.8-6.8 1.2-6.8-1.1 0-2-.4-2-.8s-1.3-1.6-3-2.5c-3-1.8-3.2-4.7-.3-4.7 2.3 0 7.3 3.9 7.3 5.8.1 1.5.2 1.5 1.1-.2 1.4-2.2 7.9-18.8 7.9-19.8 0-.5-.6-.8-1.3-.8-2.3 0-3.7-2.1-2.6-4.2 1-1.9 1.1-1.9-4.3-2.2-2.5-.2-2.8.1-2.8 3 0 2.5.7 3.8 3 5.4 2.9 2.1 4.1 6 1.9 6-.7 0-.8 1.1-.4 3.1.5 2.2.3 3.4-.6 4-2.1 1.3-2.7 1.1-3.4-1-.3-1-1.9-2.4-3.5-3.1-4.1-1.7-6.7-4.7-5.2-6.2.9-.9 2.2-.6 5.3 1.1 4.7 2.7 6.7 1.9 2.7-1.1-1.6-1.1-3.2-3.6-3.8-5.9-.6-2.2-1.5-3.7-2.1-3.3-.5.3-1.6.1-2.3-.5-1-.9-2.3 2.9-6.1 18.2-2.6 10.5-5.8 21.7-7 24.8-1.7 4.1-2.4 8.8-2.9 18.4-.7 10.9-1.1 13.1-2.6 14.2-1.3.9-2.1 3.1-2.5 7.1-1.1 10.4-1.7 13.2-2.6 13.2-.5 0-2.2-2-3.7-4.5-1.5-2.4-3.2-4.5-3.8-4.5-.6 0-2.1 1.1-3.4 2.5-3.3 3.5-4.8 3.1-6.6-1.5-.9-2.2-1.9-4-2.3-4-.4 0-2.2 1.3-4.1 3-1.9 1.6-4 2.9-4.6 3-.6 0-1.9-3-2.9-6.8-1-3.7-2.1-7.1-2.5-7.5-.4-.5-3.3.5-6.5 2.2-3.1 1.7-6.1 2.9-6.4 2.6-.4-.2-1.4-3.6-2.1-7.6l-1.4-7.1-4 .7c-8.2 1.5-8.1 1.5-8.4-4.2l-.3-5.3-3.9-.6c-5.8-1-5.3.2-11.6-23.9-1.4-5.5-3-10.5-3.5-11.1-.5-.6-2.8-1.4-5.1-1.8-6.2-1-14.7-5.4-19.4-10.1-4.9-5-13.5-17.5-12.8-18.7.3-.4 2.7-.8 5.4-.8h4.9l2.8-8.5 2.7-8.6 7.5-3.7c4.1-2 9.6-5.7 12.3-8.1 9-8 11.1-15.7 8.4-30.2-2.2-11.7-2.1-20 .3-24.8 2.7-5.2 7.9-9.5 14.8-12.2 7.9-3.1 22.4-3.1 33.8-.1 12.2 3.3 28.6 11.9 38 20 7.7 6.6 8.3 6.9 14.5 7.5 14.2 1.5 23.5 6.9 28.4 16.6 3.1 6 3.2 7 1.7 17.2-1.7 11.5-1.6 11.5-8.7 10.1-11-2.2-16.1-1.1-23.1 5.3-9.5 8.5-17.2 27.9-22.8 57.2-1 5.1-2.3 9.3-2.9 9.3-.6 0-7.3-2.1-14.8-4.7-10.7-3.7-13.8-5.2-13.8-6.5 0-2.6 2.4-2.3 13.9 1.7 5.5 1.9 10.5 3.5 11 3.5s1.5-2.6 2.1-5.8c2.4-11.8 8-31 11.5-39.5.5-1.1-2.1.3-6.1 3.4-10.3 7.8-16.2 10.2-25.9 10.5-4.4.1-9.3.7-10.8 1.3-3.6 1.4-12.7 1.4-16.4 0-7-2.6-11.4-10.1-12.1-20.6-.4-7-.4-7.1 2.4-8.6 5.7-2.9 17-5.8 24.9-6.4 10.3-.7 16.3.9 27.4 7.7 4.7 2.7 8.6 4.8 8.8 4.6.9-.8-11.2-8.7-16.6-10.7-6.9-2.7-21.4-3.6-33.2-2-9.6 1.3-11.3.6-8.9-3.7 1.3-2.3 2.6-2.9 8.5-4 10.7-1.9 28-1.9 34.1 0 9.2 2.9 21 10.2 26.8 16.6l1.8 2.1 4.4-5.4c7.3-9 16.5-12 30.8-10.2 1.6.2 2.1-.8 3.2-6.6 1.1-5.7 1.1-7.4-.2-10.9-3.6-10.4-12.1-15.8-25.8-16.6l-8.1-.5-7.1-6.6c-15.8-14.7-39.9-24.1-58.4-22.8-9.1.6-14.3 2.6-19.3 7.5-5.7 5.6-6.2 9-3.7 24.8 2.5 15.4 1.9 21-3 28.7-3.2 5.1-12.5 12.5-20.7 16.5l-5.3 2.6-3.1 9.3c-2.9 8.9-3.2 9.3-6 9.3-2.6 0-2.8.2-2 1.8.5 1 3.1 4.2 5.6 7 5.3 5.9 14.4 10.9 21.7 11.8 3 .4 5.2 1.3 5.8 2.3.5 1 2.7 8.7 5 17.1 2.2 8.5 4.6 15.7 5.2 16.1.6.4 3.1 1 5.5 1.4l4.3.6v4.5c0 4.8.4 5 6 3.4 4.2-1.2 5.5 0 6.4 6.3 1.1 6.9 1.6 7.2 7.6 4.2s7.5-2.8 8.4 1.2c.4 1.5 1.2 4.5 1.7 6.6l1 3.8 4-3.6c3.3-2.9 4.3-3.4 5.5-2.4.8.6 1.4 1.5 1.4 2 0 .4.5 2 1 3.4l1 2.7 3.1-2.6c3.8-3.2 5.2-3.3 7.2-.4 1.6 2.3 1.6 2.2 1.6-1.8.1-2.7.9-5.1 2.4-7 1.9-2.5 2.3-4.5 2.8-14.9.5-9.3 1.1-13 2.8-16.5 2.1-4.6 12.6-44.8 11.8-45.6-.7-.8-7.5 21-11.2 36.2-2 8.2-3.9 15.2-4.3 15.6-.7.7-11.8-3.4-31.7-11.6l-8-3.3-.3-4.2c-.2-3.2 0-4.2 1-3.9.7.3 1.4 1.8 1.6 3.4.3 2.8 1 3.2 16.2 9.2 8.8 3.5 16.7 6.6 17.7 6.8 1.6.4 2.1-.7 3.7-7.3 3.2-14 9.5-34.9 13.5-44.6 9-22.2 17.9-29.2 31.4-24.8 3.2 1.1 3.7 1.6 3.7 4.4 0 6.1-1.4 6.5-11.7 4-1.4-.3-2.3-.1-2.3.6 0 .6 1.1 1.1 2.5 1.1s4.1.7 6 1.4c3.3 1.4 3.5 1.8 3.5 6v4.5l-7.7-.2c-7.2-.2-8.2.1-12.2 2.8l-4.5 3 3.5.5c2.6.4 3.6.1 4.1-1.2 1.4-3.5 11.5-2 12.4 1.9.6 2.2 1.3 1.3 5.5-6.5 5.9-11 7.4-16.5 9.4-34.7.8-7.7 1.7-15.4 2.1-17.1.5-2.7.2-3.3-3.3-5.6-2.1-1.4-11.4-9.5-20.6-18.1-21.6-20.1-27.8-23.4-54.9-28.7-5.4-1.1-5.8-1.3-5.8-3.9 0-3.4.7-4.2 3.4-3.6 1.2.2 7.3 1.6 13.6 3zm-32.6 161.6c2.7.5 8.6.9 13.1.9h8.2l1.9 3.5c1 1.9 2.4 3.5 3.2 3.5 2.8 0 7.2 3.2 7.8 5.6.4 1.4.1 3.7-.5 5-.9 2.1-1.4 2.3-3.1 1.4-1-.6-2.3-.9-2.7-.8-.4.1-3.9-.2-7.7-.7-5.9-.6-7.9-1.5-14.5-5.9-4.9-3.3-7.6-5.7-7.5-6.8.1-1.2-.8-1.9-3.2-2.4-4.2-.8-6.4-3.1-4.3-4.5.8-.5 2.1-.6 2.9-.3.8.3 3.7 1 6.4 1.5zm6.2 15.5l10.9 8.5 4.9-.6c2.7-.3 5.4-.7 6-.8.6-.1 1.1.7 1.1 1.8 0 1.6-1.2 2.2-6.2 3.4l-6.1 1.4-11.9-9.3c-6.5-5.1-12-9.5-12.2-9.6-.6-.5.8-3.4 1.7-3.4.5 0 5.8 3.8 11.8 8.6zm-88.3 32c2 .6 2 .9.3 8.9-1.6 7.7-4 8.3-4.2 1.1-.2-5.1-2-7.6-5.3-7.6-2.8 0-8.1 3.9-9.2 6.6-1.3 3.6-.4 6.2 4.1 10.9 9.1 9.6 10.8 15 7 22.5-2.5 5-7.9 8.6-14.8 10.1-6.8 1.4-11 .6-14.9-2.9-4.2-3.7-5-6.5-2.3-9.2 2.6-2.6 5.6-1.3 6.5 3 1.5 6.8 9.4 7.7 16 1.8 2.7-2.3 3.5-3.8 3.5-6.5 0-4.4-1.2-6.7-7.1-12.9-5.3-5.7-6.5-8.6-5.5-14 .9-4.3 7.2-10.9 11.8-12.3 3.1-.9 10-.7 14.1.5zm40.6 28.3c1.8 1.1.5 3.1-1.9 3.1-1.9 0-3.1 3-5.6 13.2-.9 3.8-2.2 3.5-4-1-.8-2-1.8-4.6-2.3-5.7-.7-1.6-1.1-1-2.5 3.7-1.6 5.5-4.1 7.9-7.1 6.8-.5-.1-2.8-.6-5-.9-3.4-.6-4-1-3.8-2.9.2-1.7-.2-2.2-2.2-2.2-1.4 0-2.5.4-2.5.9s-1.3 2.3-2.9 4c-3.1 3.3-7.1 4.2-7.1 1.6 0-.8.8-1.5 1.9-1.5 1.8 0 13.7-14.8 12.7-15.8-1.1-1-3.6.9-3.6 2.8 0 2.1-1.4 2.7-2.5 1-1.9-3.1 2.8-7 8.7-7h3l-.6 5.7c-.4 3.2-.9 7-1.2 8.4-.5 2.5-.2 2.7 3.6 3.1 4.8.4 5.1.1 7.3-8.5 1.2-4.5 1.2-5.7.2-5.7-1.8 0-3.7 2.6-3.3 4.7.2 1.1-.3 1.8-1.2 1.8-2.2 0-2.4-3.8-.3-6.3 1.2-1.5 3.1-2.3 5.7-2.5 3.8-.2 3.9-.1 5.3 4.5 1.6 5.7 2.8 6.1 3.7 1.2.7-3.3 3.6-7.4 5.4-7.4.4 0 1.3.4 2.1.9zm23.1 14.5c0 .8-1.3 1.7-3 2.1-1.6.4-3 .8-3 .9 0 .1-1.6 6.3-3.5 13.7-1.9 7.4-3.5 14-3.5 14.6 0 .7.9 1.3 2 1.3s2 .7 2 1.5c0 1.2-1.5 1.5-7.9 1.5-8.9 0-10.9-1.2-5.7-3.4 3.8-1.6 3.4-.8 7.6-17.6 1.2-4.7 2.3-9.3 2.6-10.3.4-1.2 0-1.7-1.5-1.7-1.2 0-2.1-.7-2.1-1.4 0-1.1 1.4-1.6 4.8-1.9 10.3-.8 11.2-.7 11.2.7zm45.4 13.2c2.6 1 1.9 3.4-.9 3.4-2.9 0-3.8 1.8-6.2 12.2-.8 3.8-1.9 6.8-2.5 6.8-.8 0-2.5-3.5-5.7-11.5-.7-1.6-1.1-.9-2.5 3.7-.9 3.1-2.3 6.4-3.2 7.2-1.8 1.8-7 2.1-8 .5s1.7-2.9 3.8-1.8c2.1 1.1 3.4-1 5.4-8.6 2-7.4 1.9-8.6-.8-7.6-1.8.7-2.3 1.6-2.3 4.2 0 4.2-2.8 4.8-3.3.8s3.4-7.8 8.2-8.1l3.9-.3 1.8 5.8c1 3.3 2 6.1 2.2 6.4.3.2 1.2-2 2.1-5.1 1-3.2 2.5-6.1 3.8-7.1 2.6-1.7 2.2-1.7 4.2-.9zm-29.2 1.6c1.2.9 1.5 2.2 1.1 4-.6 3.4-2 3.7-2.5.5-.2-1.6-1.1-2.3-3.3-2.5-3.9-.4-8.3 4-9.2 9.1-.7 4.3.9 6.7 4.4 6.7 2.5 0 4.5-3.1 2.5-3.8-2.4-.8-1.1-2.2 2.1-2.2 3.8 0 5.1.8 3.8 2.4-.4.6-1.6 3.4-2.5 6.2-2.6 8-7.4 11-11.7 7.5-2.2-1.8-2.2-2-.6-2.6.9-.4 2.4-.1 3.3.6 1.4 1.1 1.8 1 3-.6 2.2-3 1.7-4.5-1.6-4.5-4.4 0-7-3.1-7-8.4 0-9 12-17.1 18.2-12.4zm44.5 1c-.3 1.3-.9 5.8-1.2 10-.7 7.1-.6 7.8 1.1 7.8 1.3 0 1.5.3.7 1.1-.6.6-2.3.9-3.9.7-2.5-.3-2.9-.7-2.7-3.1.3-4.4-3.5-3.6-8.1 1.9-2.9 3.4-4.4 4.4-6.2 4.2-2.9-.4-3.3-2.1-.7-2.7 1-.2 2.4-.8 3.1-1.4 2-1.6 12.5-16.8 12-17.3-1.1-1-3.8.9-3.8 2.6 0 2.3-1.8 3.6-3.2 2.2-3-3 2.9-8.1 9.6-8.2 3.5 0 3.8.2 3.3 2.2zm19.7-1.6c2.2.8 2.2 7.4.1 7.4-.9 0-1.5-.9-1.5-2.5 0-2-.5-2.5-2.4-2.5-5.8 0-10.7 11.2-7.6 17.1 1.3 2.3 3.8 2.4 6.8.3 3.4-2.4 4.1-.6.9 2.2-3.6 3-6.8 3-10.4 0-8.5-7.4 3.5-26.1 14.1-22zm32 1.9c1.9 1.7 2.6 3.4 2.6 6 0 10.2-10.3 17-17.4 11.4-4.9-3.9-2.9-13.9 3.7-17.9 4.3-2.7 7.9-2.5 11.1.5z"></path>
        <path d="M331.5 267.8c7.8 2.4 12.9 5.1 19.4 10.2 6 4.8 6.5 7.9 1.9 11.3l-2.7 2-7.3-5c-14.3-9.9-21.5-11.8-34.5-9.2-6.7 1.3-6.7 1.4-2.8 1.9 3.8.5 4 .7 4.3 4.5.2 2.9 1.2 4.9 3.5 7.2 2.6 2.8 3.8 3.3 7.9 3.3 3.5 0 5 .4 5.5 1.6 1 2.6-1.1 3.4-7.3 2.8-5.6-.6-6.1-.9-9.9-5.5-2.2-2.8-3.9-5.8-3.8-6.9.2-1.4-.3-2-1.6-2-2.2 0-4.5-2.5-3.6-4 .8-1.2-.5-1.3-2.5 0-2 1.2 0 4.7 6.8 12.2 10.7 11.5 22.4 14.2 35.2 8.2 6.9-3.3 20-13.6 20-15.9 0-2-12-11.2-19.1-14.5-3.5-1.6-8.4-3.2-10.9-3.5-4.3-.5-4.2-.4 1.5 1.3z"></path>
        <path d="M384.4 277.4c-3.9 1.7-10.2 10-13.8 18-3 6.7-3.1 7.3-1.2 5.3.8-.7 3.8-2.9 6.6-4.7 4.1-2.6 6.7-3.5 11.9-4 6.4-.6 6.5-.7 3.6-1.9-2.1-.9-3.6-.9-5.3-.2-2.7 1.3-3.2.5-3.5-6l-.2-4.4 7.8.1c5.2.1 7.7-.2 7.4-1-.8-2.5-8.7-3.2-13.3-1.2z"></path>
        <path d="M290.4 288.8c.8 11.5 6.9 17.6 17.2 17l5.6-.3-5.3-3.5c-4.8-3.1-7-5.5-15.7-16.6l-2.3-2.9.5 6.3z"></path>
        <path d="M393.9 460.2c-1.5 2.5-1.8 4.3-1.4 7.2.8 5.2 1.1 5.6 4.5 5.6 5.2 0 8.8-8.6 5.6-13.5-2.4-3.6-6.1-3.3-8.7.7z"></path>
    </g>
</svg>